G04 #@! TF.GenerationSoftware,KiCad,Pcbnew,5.1.1-8be2ce7~80~ubuntu18.10.1*
G04 #@! TF.CreationDate,2019-05-27T02:03:18+08:00*
G04 #@! TF.ProjectId,jtagboard,6a746167-626f-4617-9264-2e6b69636164,rev?*
G04 #@! TF.SameCoordinates,Original*
G04 #@! TF.FileFunction,Copper,L1,Top*
G04 #@! TF.FilePolarity,Positive*
%FSLAX46Y46*%
G04 Gerber Fmt 4.6, Leading zero omitted, Abs format (unit mm)*
G04 Created by KiCad (PCBNEW 5.1.1-8be2ce7~80~ubuntu18.10.1) date 2019-05-27 02:03:18*
%MOMM*%
%LPD*%
G04 APERTURE LIST*
%ADD10R,1.727200X1.727200*%
%ADD11O,1.727200X1.727200*%
%ADD12R,1.700000X1.700000*%
%ADD13O,1.700000X1.700000*%
%ADD14C,0.500000*%
%ADD15C,0.250000*%
%ADD16C,0.254000*%
G04 APERTURE END LIST*
D10*
X115316000Y-109220000D03*
D11*
X115316000Y-111760000D03*
X112776000Y-109220000D03*
X112776000Y-111760000D03*
X110236000Y-109220000D03*
X110236000Y-111760000D03*
X107696000Y-109220000D03*
X107696000Y-111760000D03*
X105156000Y-109220000D03*
X105156000Y-111760000D03*
X102616000Y-109220000D03*
X102616000Y-111760000D03*
X100076000Y-109220000D03*
X100076000Y-111760000D03*
X97536000Y-109220000D03*
X97536000Y-111760000D03*
X94996000Y-109220000D03*
X94996000Y-111760000D03*
X92456000Y-109220000D03*
X92456000Y-111760000D03*
D12*
X79451200Y-103931800D03*
D13*
X79451200Y-106471800D03*
X79451200Y-109011800D03*
X79451200Y-111551800D03*
X79451200Y-114091800D03*
X79451200Y-116631800D03*
D12*
X127508000Y-105156000D03*
D13*
X127508000Y-107696000D03*
X127508000Y-110236000D03*
X127508000Y-112776000D03*
X127508000Y-115316000D03*
D14*
X111391400Y-103931800D02*
X115316000Y-107856400D01*
X79451200Y-103931800D02*
X111391400Y-103931800D01*
X126158000Y-105156000D02*
X127508000Y-105156000D01*
X115316000Y-107856400D02*
X118016400Y-105156000D01*
X118016400Y-105156000D02*
X126158000Y-105156000D01*
X115316000Y-109220000D02*
X115316000Y-107856400D01*
X92456000Y-111760000D02*
X112776000Y-111760000D01*
X106832401Y-108356401D02*
X107696000Y-109220000D01*
X104097801Y-105621801D02*
X106832401Y-108356401D01*
X80301199Y-105621801D02*
X104097801Y-105621801D01*
X79451200Y-106471800D02*
X80301199Y-105621801D01*
D15*
X108559599Y-110083599D02*
X107696000Y-109220000D01*
X108884601Y-110408601D02*
X108559599Y-110083599D01*
X124795399Y-110408601D02*
X108884601Y-110408601D01*
X127508000Y-107696000D02*
X124795399Y-110408601D01*
D14*
X104292401Y-108356401D02*
X105156000Y-109220000D01*
X102442377Y-106506377D02*
X104292401Y-108356401D01*
X81956623Y-106506377D02*
X102442377Y-106506377D01*
X79451200Y-109011800D02*
X81956623Y-106506377D01*
X99212401Y-108356401D02*
X100076000Y-109220000D01*
X98062388Y-107206388D02*
X99212401Y-108356401D01*
X83796612Y-107206388D02*
X98062388Y-107206388D01*
X79451200Y-111551800D02*
X83796612Y-107206388D01*
X85636601Y-107906399D02*
X80301199Y-113241801D01*
X96222399Y-107906399D02*
X85636601Y-107906399D01*
X80301199Y-113241801D02*
X79451200Y-114091800D01*
X97536000Y-109220000D02*
X96222399Y-107906399D01*
D16*
G36*
X128880000Y-103941104D02*
G01*
X128809185Y-103854815D01*
X128712494Y-103775463D01*
X128602180Y-103716498D01*
X128482482Y-103680188D01*
X128358000Y-103667928D01*
X126658000Y-103667928D01*
X126533518Y-103680188D01*
X126413820Y-103716498D01*
X126303506Y-103775463D01*
X126206815Y-103854815D01*
X126127463Y-103951506D01*
X126068498Y-104061820D01*
X126032188Y-104181518D01*
X126023375Y-104271000D01*
X118059865Y-104271000D01*
X118016399Y-104266719D01*
X117972933Y-104271000D01*
X117972923Y-104271000D01*
X117842910Y-104283805D01*
X117676087Y-104334411D01*
X117522341Y-104416589D01*
X117522339Y-104416590D01*
X117522340Y-104416590D01*
X117421353Y-104499468D01*
X117421351Y-104499470D01*
X117387583Y-104527183D01*
X117359870Y-104560951D01*
X115316000Y-106604821D01*
X112047934Y-103336756D01*
X112020217Y-103302983D01*
X111885459Y-103192389D01*
X111731713Y-103110211D01*
X111564890Y-103059605D01*
X111434877Y-103046800D01*
X111434869Y-103046800D01*
X111391400Y-103042519D01*
X111347931Y-103046800D01*
X80935825Y-103046800D01*
X80927012Y-102957318D01*
X80890702Y-102837620D01*
X80831737Y-102727306D01*
X80752385Y-102630615D01*
X80655694Y-102551263D01*
X80545380Y-102492298D01*
X80425682Y-102455988D01*
X80301200Y-102443728D01*
X78601200Y-102443728D01*
X78476718Y-102455988D01*
X78357020Y-102492298D01*
X78246706Y-102551263D01*
X78150015Y-102630615D01*
X78070663Y-102727306D01*
X78011698Y-102837620D01*
X77975388Y-102957318D01*
X77963128Y-103081800D01*
X77963128Y-104781800D01*
X77975388Y-104906282D01*
X78011698Y-105025980D01*
X78070663Y-105136294D01*
X78150015Y-105232985D01*
X78246706Y-105312337D01*
X78357020Y-105371302D01*
X78425887Y-105392193D01*
X78396066Y-105416666D01*
X78210494Y-105642786D01*
X78072601Y-105900766D01*
X77987687Y-106180689D01*
X77959015Y-106471800D01*
X77987687Y-106762911D01*
X78072601Y-107042834D01*
X78210494Y-107300814D01*
X78396066Y-107526934D01*
X78622186Y-107712506D01*
X78676991Y-107741800D01*
X78622186Y-107771094D01*
X78396066Y-107956666D01*
X78210494Y-108182786D01*
X78072601Y-108440766D01*
X77987687Y-108720689D01*
X77959015Y-109011800D01*
X77987687Y-109302911D01*
X78072601Y-109582834D01*
X78210494Y-109840814D01*
X78396066Y-110066934D01*
X78622186Y-110252506D01*
X78676991Y-110281800D01*
X78622186Y-110311094D01*
X78396066Y-110496666D01*
X78210494Y-110722786D01*
X78072601Y-110980766D01*
X77987687Y-111260689D01*
X77959015Y-111551800D01*
X77987687Y-111842911D01*
X78072601Y-112122834D01*
X78210494Y-112380814D01*
X78396066Y-112606934D01*
X78622186Y-112792506D01*
X78676991Y-112821800D01*
X78622186Y-112851094D01*
X78396066Y-113036666D01*
X78210494Y-113262786D01*
X78072601Y-113520766D01*
X77987687Y-113800689D01*
X77959015Y-114091800D01*
X77987687Y-114382911D01*
X78072601Y-114662834D01*
X78210494Y-114920814D01*
X78396066Y-115146934D01*
X78622186Y-115332506D01*
X78686723Y-115367001D01*
X78569845Y-115436622D01*
X78353612Y-115631531D01*
X78179559Y-115864880D01*
X78054375Y-116127701D01*
X78009724Y-116274910D01*
X78131045Y-116504800D01*
X79324200Y-116504800D01*
X79324200Y-116484800D01*
X79578200Y-116484800D01*
X79578200Y-116504800D01*
X80771355Y-116504800D01*
X80892676Y-116274910D01*
X80848025Y-116127701D01*
X80722841Y-115864880D01*
X80579638Y-115672890D01*
X126066524Y-115672890D01*
X126111175Y-115820099D01*
X126236359Y-116082920D01*
X126410412Y-116316269D01*
X126626645Y-116511178D01*
X126876748Y-116660157D01*
X127151109Y-116757481D01*
X127381000Y-116636814D01*
X127381000Y-115443000D01*
X126187845Y-115443000D01*
X126066524Y-115672890D01*
X80579638Y-115672890D01*
X80548788Y-115631531D01*
X80332555Y-115436622D01*
X80215677Y-115367001D01*
X80280214Y-115332506D01*
X80506334Y-115146934D01*
X80691906Y-114920814D01*
X80829799Y-114662834D01*
X80914713Y-114382911D01*
X80943385Y-114091800D01*
X80921812Y-113872767D01*
X80957731Y-113836848D01*
X80957736Y-113836842D01*
X82675551Y-112119027D01*
X91001037Y-112119027D01*
X91099036Y-112395978D01*
X91249183Y-112648488D01*
X91445707Y-112866854D01*
X91681056Y-113042684D01*
X91946186Y-113169222D01*
X92096974Y-113214958D01*
X92329000Y-113093817D01*
X92329000Y-111887000D01*
X92583000Y-111887000D01*
X92583000Y-113093817D01*
X92815026Y-113214958D01*
X92965814Y-113169222D01*
X93230944Y-113042684D01*
X93466293Y-112866854D01*
X93662817Y-112648488D01*
X93726000Y-112542230D01*
X93789183Y-112648488D01*
X93985707Y-112866854D01*
X94221056Y-113042684D01*
X94486186Y-113169222D01*
X94636974Y-113214958D01*
X94869000Y-113093817D01*
X94869000Y-111887000D01*
X95123000Y-111887000D01*
X95123000Y-113093817D01*
X95355026Y-113214958D01*
X95505814Y-113169222D01*
X95770944Y-113042684D01*
X96006293Y-112866854D01*
X96202817Y-112648488D01*
X96266000Y-112542230D01*
X96329183Y-112648488D01*
X96525707Y-112866854D01*
X96761056Y-113042684D01*
X97026186Y-113169222D01*
X97176974Y-113214958D01*
X97409000Y-113093817D01*
X97409000Y-111887000D01*
X97663000Y-111887000D01*
X97663000Y-113093817D01*
X97895026Y-113214958D01*
X98045814Y-113169222D01*
X98310944Y-113042684D01*
X98546293Y-112866854D01*
X98742817Y-112648488D01*
X98806000Y-112542230D01*
X98869183Y-112648488D01*
X99065707Y-112866854D01*
X99301056Y-113042684D01*
X99566186Y-113169222D01*
X99716974Y-113214958D01*
X99949000Y-113093817D01*
X99949000Y-111887000D01*
X100203000Y-111887000D01*
X100203000Y-113093817D01*
X100435026Y-113214958D01*
X100585814Y-113169222D01*
X100850944Y-113042684D01*
X101086293Y-112866854D01*
X101282817Y-112648488D01*
X101346000Y-112542230D01*
X101409183Y-112648488D01*
X101605707Y-112866854D01*
X101841056Y-113042684D01*
X102106186Y-113169222D01*
X102256974Y-113214958D01*
X102489000Y-113093817D01*
X102489000Y-111887000D01*
X102743000Y-111887000D01*
X102743000Y-113093817D01*
X102975026Y-113214958D01*
X103125814Y-113169222D01*
X103390944Y-113042684D01*
X103626293Y-112866854D01*
X103822817Y-112648488D01*
X103886000Y-112542230D01*
X103949183Y-112648488D01*
X104145707Y-112866854D01*
X104381056Y-113042684D01*
X104646186Y-113169222D01*
X104796974Y-113214958D01*
X105029000Y-113093817D01*
X105029000Y-111887000D01*
X105283000Y-111887000D01*
X105283000Y-113093817D01*
X105515026Y-113214958D01*
X105665814Y-113169222D01*
X105930944Y-113042684D01*
X106166293Y-112866854D01*
X106362817Y-112648488D01*
X106426000Y-112542230D01*
X106489183Y-112648488D01*
X106685707Y-112866854D01*
X106921056Y-113042684D01*
X107186186Y-113169222D01*
X107336974Y-113214958D01*
X107569000Y-113093817D01*
X107569000Y-111887000D01*
X107823000Y-111887000D01*
X107823000Y-113093817D01*
X108055026Y-113214958D01*
X108205814Y-113169222D01*
X108470944Y-113042684D01*
X108706293Y-112866854D01*
X108902817Y-112648488D01*
X108966000Y-112542230D01*
X109029183Y-112648488D01*
X109225707Y-112866854D01*
X109461056Y-113042684D01*
X109726186Y-113169222D01*
X109876974Y-113214958D01*
X110109000Y-113093817D01*
X110109000Y-111887000D01*
X110363000Y-111887000D01*
X110363000Y-113093817D01*
X110595026Y-113214958D01*
X110745814Y-113169222D01*
X111010944Y-113042684D01*
X111246293Y-112866854D01*
X111442817Y-112648488D01*
X111506000Y-112542230D01*
X111569183Y-112648488D01*
X111765707Y-112866854D01*
X112001056Y-113042684D01*
X112266186Y-113169222D01*
X112416974Y-113214958D01*
X112649000Y-113093817D01*
X112649000Y-111887000D01*
X110363000Y-111887000D01*
X110109000Y-111887000D01*
X107823000Y-111887000D01*
X107569000Y-111887000D01*
X105283000Y-111887000D01*
X105029000Y-111887000D01*
X102743000Y-111887000D01*
X102489000Y-111887000D01*
X100203000Y-111887000D01*
X99949000Y-111887000D01*
X97663000Y-111887000D01*
X97409000Y-111887000D01*
X95123000Y-111887000D01*
X94869000Y-111887000D01*
X92583000Y-111887000D01*
X92329000Y-111887000D01*
X91121536Y-111887000D01*
X91001037Y-112119027D01*
X82675551Y-112119027D01*
X86003180Y-108791399D01*
X91019982Y-108791399D01*
X90979084Y-108926223D01*
X90950149Y-109220000D01*
X90979084Y-109513777D01*
X91064775Y-109796264D01*
X91203931Y-110056606D01*
X91391203Y-110284797D01*
X91619394Y-110472069D01*
X91659433Y-110493470D01*
X91445707Y-110653146D01*
X91249183Y-110871512D01*
X91099036Y-111124022D01*
X91001037Y-111400973D01*
X91121536Y-111633000D01*
X92329000Y-111633000D01*
X92329000Y-111613000D01*
X92583000Y-111613000D01*
X92583000Y-111633000D01*
X94869000Y-111633000D01*
X94869000Y-111613000D01*
X95123000Y-111613000D01*
X95123000Y-111633000D01*
X97409000Y-111633000D01*
X97409000Y-111613000D01*
X97663000Y-111613000D01*
X97663000Y-111633000D01*
X99949000Y-111633000D01*
X99949000Y-111613000D01*
X100203000Y-111613000D01*
X100203000Y-111633000D01*
X102489000Y-111633000D01*
X102489000Y-111613000D01*
X102743000Y-111613000D01*
X102743000Y-111633000D01*
X105029000Y-111633000D01*
X105029000Y-111613000D01*
X105283000Y-111613000D01*
X105283000Y-111633000D01*
X107569000Y-111633000D01*
X107569000Y-111613000D01*
X107823000Y-111613000D01*
X107823000Y-111633000D01*
X110109000Y-111633000D01*
X110109000Y-111613000D01*
X110363000Y-111613000D01*
X110363000Y-111633000D01*
X112649000Y-111633000D01*
X112649000Y-111613000D01*
X112903000Y-111613000D01*
X112903000Y-111633000D01*
X112923000Y-111633000D01*
X112923000Y-111887000D01*
X112903000Y-111887000D01*
X112903000Y-113093817D01*
X113135026Y-113214958D01*
X113285814Y-113169222D01*
X113550944Y-113042684D01*
X113786293Y-112866854D01*
X113982817Y-112648488D01*
X114040137Y-112552090D01*
X114063931Y-112596606D01*
X114251203Y-112824797D01*
X114479394Y-113012069D01*
X114739736Y-113151225D01*
X115022223Y-113236916D01*
X115242381Y-113258600D01*
X115389619Y-113258600D01*
X115609777Y-113236916D01*
X115892264Y-113151225D01*
X116152606Y-113012069D01*
X116380797Y-112824797D01*
X116568069Y-112596606D01*
X116707225Y-112336264D01*
X116792916Y-112053777D01*
X116821851Y-111760000D01*
X116792916Y-111466223D01*
X116707225Y-111183736D01*
X116699135Y-111168601D01*
X124758077Y-111168601D01*
X124795399Y-111172277D01*
X124832721Y-111168601D01*
X124832732Y-111168601D01*
X124944385Y-111157604D01*
X125087646Y-111114147D01*
X125219675Y-111043575D01*
X125335400Y-110948602D01*
X125359203Y-110919598D01*
X126018235Y-110260567D01*
X126044487Y-110527111D01*
X126129401Y-110807034D01*
X126267294Y-111065014D01*
X126452866Y-111291134D01*
X126678986Y-111476706D01*
X126733791Y-111506000D01*
X126678986Y-111535294D01*
X126452866Y-111720866D01*
X126267294Y-111946986D01*
X126129401Y-112204966D01*
X126044487Y-112484889D01*
X126015815Y-112776000D01*
X126044487Y-113067111D01*
X126129401Y-113347034D01*
X126267294Y-113605014D01*
X126452866Y-113831134D01*
X126678986Y-114016706D01*
X126743523Y-114051201D01*
X126626645Y-114120822D01*
X126410412Y-114315731D01*
X126236359Y-114549080D01*
X126111175Y-114811901D01*
X126066524Y-114959110D01*
X126187845Y-115189000D01*
X127381000Y-115189000D01*
X127381000Y-115169000D01*
X127635000Y-115169000D01*
X127635000Y-115189000D01*
X127655000Y-115189000D01*
X127655000Y-115443000D01*
X127635000Y-115443000D01*
X127635000Y-116636814D01*
X127864891Y-116757481D01*
X128139252Y-116660157D01*
X128389355Y-116511178D01*
X128605588Y-116316269D01*
X128779641Y-116082920D01*
X128880001Y-115872217D01*
X128880001Y-118212000D01*
X77876000Y-118212000D01*
X77876000Y-116988690D01*
X78009724Y-116988690D01*
X78054375Y-117135899D01*
X78179559Y-117398720D01*
X78353612Y-117632069D01*
X78569845Y-117826978D01*
X78819948Y-117975957D01*
X79094309Y-118073281D01*
X79324200Y-117952614D01*
X79324200Y-116758800D01*
X79578200Y-116758800D01*
X79578200Y-117952614D01*
X79808091Y-118073281D01*
X80082452Y-117975957D01*
X80332555Y-117826978D01*
X80548788Y-117632069D01*
X80722841Y-117398720D01*
X80848025Y-117135899D01*
X80892676Y-116988690D01*
X80771355Y-116758800D01*
X79578200Y-116758800D01*
X79324200Y-116758800D01*
X78131045Y-116758800D01*
X78009724Y-116988690D01*
X77876000Y-116988690D01*
X77876000Y-102260000D01*
X128880000Y-102260000D01*
X128880000Y-103941104D01*
X128880000Y-103941104D01*
G37*
X128880000Y-103941104D02*
X128809185Y-103854815D01*
X128712494Y-103775463D01*
X128602180Y-103716498D01*
X128482482Y-103680188D01*
X128358000Y-103667928D01*
X126658000Y-103667928D01*
X126533518Y-103680188D01*
X126413820Y-103716498D01*
X126303506Y-103775463D01*
X126206815Y-103854815D01*
X126127463Y-103951506D01*
X126068498Y-104061820D01*
X126032188Y-104181518D01*
X126023375Y-104271000D01*
X118059865Y-104271000D01*
X118016399Y-104266719D01*
X117972933Y-104271000D01*
X117972923Y-104271000D01*
X117842910Y-104283805D01*
X117676087Y-104334411D01*
X117522341Y-104416589D01*
X117522339Y-104416590D01*
X117522340Y-104416590D01*
X117421353Y-104499468D01*
X117421351Y-104499470D01*
X117387583Y-104527183D01*
X117359870Y-104560951D01*
X115316000Y-106604821D01*
X112047934Y-103336756D01*
X112020217Y-103302983D01*
X111885459Y-103192389D01*
X111731713Y-103110211D01*
X111564890Y-103059605D01*
X111434877Y-103046800D01*
X111434869Y-103046800D01*
X111391400Y-103042519D01*
X111347931Y-103046800D01*
X80935825Y-103046800D01*
X80927012Y-102957318D01*
X80890702Y-102837620D01*
X80831737Y-102727306D01*
X80752385Y-102630615D01*
X80655694Y-102551263D01*
X80545380Y-102492298D01*
X80425682Y-102455988D01*
X80301200Y-102443728D01*
X78601200Y-102443728D01*
X78476718Y-102455988D01*
X78357020Y-102492298D01*
X78246706Y-102551263D01*
X78150015Y-102630615D01*
X78070663Y-102727306D01*
X78011698Y-102837620D01*
X77975388Y-102957318D01*
X77963128Y-103081800D01*
X77963128Y-104781800D01*
X77975388Y-104906282D01*
X78011698Y-105025980D01*
X78070663Y-105136294D01*
X78150015Y-105232985D01*
X78246706Y-105312337D01*
X78357020Y-105371302D01*
X78425887Y-105392193D01*
X78396066Y-105416666D01*
X78210494Y-105642786D01*
X78072601Y-105900766D01*
X77987687Y-106180689D01*
X77959015Y-106471800D01*
X77987687Y-106762911D01*
X78072601Y-107042834D01*
X78210494Y-107300814D01*
X78396066Y-107526934D01*
X78622186Y-107712506D01*
X78676991Y-107741800D01*
X78622186Y-107771094D01*
X78396066Y-107956666D01*
X78210494Y-108182786D01*
X78072601Y-108440766D01*
X77987687Y-108720689D01*
X77959015Y-109011800D01*
X77987687Y-109302911D01*
X78072601Y-109582834D01*
X78210494Y-109840814D01*
X78396066Y-110066934D01*
X78622186Y-110252506D01*
X78676991Y-110281800D01*
X78622186Y-110311094D01*
X78396066Y-110496666D01*
X78210494Y-110722786D01*
X78072601Y-110980766D01*
X77987687Y-111260689D01*
X77959015Y-111551800D01*
X77987687Y-111842911D01*
X78072601Y-112122834D01*
X78210494Y-112380814D01*
X78396066Y-112606934D01*
X78622186Y-112792506D01*
X78676991Y-112821800D01*
X78622186Y-112851094D01*
X78396066Y-113036666D01*
X78210494Y-113262786D01*
X78072601Y-113520766D01*
X77987687Y-113800689D01*
X77959015Y-114091800D01*
X77987687Y-114382911D01*
X78072601Y-114662834D01*
X78210494Y-114920814D01*
X78396066Y-115146934D01*
X78622186Y-115332506D01*
X78686723Y-115367001D01*
X78569845Y-115436622D01*
X78353612Y-115631531D01*
X78179559Y-115864880D01*
X78054375Y-116127701D01*
X78009724Y-116274910D01*
X78131045Y-116504800D01*
X79324200Y-116504800D01*
X79324200Y-116484800D01*
X79578200Y-116484800D01*
X79578200Y-116504800D01*
X80771355Y-116504800D01*
X80892676Y-116274910D01*
X80848025Y-116127701D01*
X80722841Y-115864880D01*
X80579638Y-115672890D01*
X126066524Y-115672890D01*
X126111175Y-115820099D01*
X126236359Y-116082920D01*
X126410412Y-116316269D01*
X126626645Y-116511178D01*
X126876748Y-116660157D01*
X127151109Y-116757481D01*
X127381000Y-116636814D01*
X127381000Y-115443000D01*
X126187845Y-115443000D01*
X126066524Y-115672890D01*
X80579638Y-115672890D01*
X80548788Y-115631531D01*
X80332555Y-115436622D01*
X80215677Y-115367001D01*
X80280214Y-115332506D01*
X80506334Y-115146934D01*
X80691906Y-114920814D01*
X80829799Y-114662834D01*
X80914713Y-114382911D01*
X80943385Y-114091800D01*
X80921812Y-113872767D01*
X80957731Y-113836848D01*
X80957736Y-113836842D01*
X82675551Y-112119027D01*
X91001037Y-112119027D01*
X91099036Y-112395978D01*
X91249183Y-112648488D01*
X91445707Y-112866854D01*
X91681056Y-113042684D01*
X91946186Y-113169222D01*
X92096974Y-113214958D01*
X92329000Y-113093817D01*
X92329000Y-111887000D01*
X92583000Y-111887000D01*
X92583000Y-113093817D01*
X92815026Y-113214958D01*
X92965814Y-113169222D01*
X93230944Y-113042684D01*
X93466293Y-112866854D01*
X93662817Y-112648488D01*
X93726000Y-112542230D01*
X93789183Y-112648488D01*
X93985707Y-112866854D01*
X94221056Y-113042684D01*
X94486186Y-113169222D01*
X94636974Y-113214958D01*
X94869000Y-113093817D01*
X94869000Y-111887000D01*
X95123000Y-111887000D01*
X95123000Y-113093817D01*
X95355026Y-113214958D01*
X95505814Y-113169222D01*
X95770944Y-113042684D01*
X96006293Y-112866854D01*
X96202817Y-112648488D01*
X96266000Y-112542230D01*
X96329183Y-112648488D01*
X96525707Y-112866854D01*
X96761056Y-113042684D01*
X97026186Y-113169222D01*
X97176974Y-113214958D01*
X97409000Y-113093817D01*
X97409000Y-111887000D01*
X97663000Y-111887000D01*
X97663000Y-113093817D01*
X97895026Y-113214958D01*
X98045814Y-113169222D01*
X98310944Y-113042684D01*
X98546293Y-112866854D01*
X98742817Y-112648488D01*
X98806000Y-112542230D01*
X98869183Y-112648488D01*
X99065707Y-112866854D01*
X99301056Y-113042684D01*
X99566186Y-113169222D01*
X99716974Y-113214958D01*
X99949000Y-113093817D01*
X99949000Y-111887000D01*
X100203000Y-111887000D01*
X100203000Y-113093817D01*
X100435026Y-113214958D01*
X100585814Y-113169222D01*
X100850944Y-113042684D01*
X101086293Y-112866854D01*
X101282817Y-112648488D01*
X101346000Y-112542230D01*
X101409183Y-112648488D01*
X101605707Y-112866854D01*
X101841056Y-113042684D01*
X102106186Y-113169222D01*
X102256974Y-113214958D01*
X102489000Y-113093817D01*
X102489000Y-111887000D01*
X102743000Y-111887000D01*
X102743000Y-113093817D01*
X102975026Y-113214958D01*
X103125814Y-113169222D01*
X103390944Y-113042684D01*
X103626293Y-112866854D01*
X103822817Y-112648488D01*
X103886000Y-112542230D01*
X103949183Y-112648488D01*
X104145707Y-112866854D01*
X104381056Y-113042684D01*
X104646186Y-113169222D01*
X104796974Y-113214958D01*
X105029000Y-113093817D01*
X105029000Y-111887000D01*
X105283000Y-111887000D01*
X105283000Y-113093817D01*
X105515026Y-113214958D01*
X105665814Y-113169222D01*
X105930944Y-113042684D01*
X106166293Y-112866854D01*
X106362817Y-112648488D01*
X106426000Y-112542230D01*
X106489183Y-112648488D01*
X106685707Y-112866854D01*
X106921056Y-113042684D01*
X107186186Y-113169222D01*
X107336974Y-113214958D01*
X107569000Y-113093817D01*
X107569000Y-111887000D01*
X107823000Y-111887000D01*
X107823000Y-113093817D01*
X108055026Y-113214958D01*
X108205814Y-113169222D01*
X108470944Y-113042684D01*
X108706293Y-112866854D01*
X108902817Y-112648488D01*
X108966000Y-112542230D01*
X109029183Y-112648488D01*
X109225707Y-112866854D01*
X109461056Y-113042684D01*
X109726186Y-113169222D01*
X109876974Y-113214958D01*
X110109000Y-113093817D01*
X110109000Y-111887000D01*
X110363000Y-111887000D01*
X110363000Y-113093817D01*
X110595026Y-113214958D01*
X110745814Y-113169222D01*
X111010944Y-113042684D01*
X111246293Y-112866854D01*
X111442817Y-112648488D01*
X111506000Y-112542230D01*
X111569183Y-112648488D01*
X111765707Y-112866854D01*
X112001056Y-113042684D01*
X112266186Y-113169222D01*
X112416974Y-113214958D01*
X112649000Y-113093817D01*
X112649000Y-111887000D01*
X110363000Y-111887000D01*
X110109000Y-111887000D01*
X107823000Y-111887000D01*
X107569000Y-111887000D01*
X105283000Y-111887000D01*
X105029000Y-111887000D01*
X102743000Y-111887000D01*
X102489000Y-111887000D01*
X100203000Y-111887000D01*
X99949000Y-111887000D01*
X97663000Y-111887000D01*
X97409000Y-111887000D01*
X95123000Y-111887000D01*
X94869000Y-111887000D01*
X92583000Y-111887000D01*
X92329000Y-111887000D01*
X91121536Y-111887000D01*
X91001037Y-112119027D01*
X82675551Y-112119027D01*
X86003180Y-108791399D01*
X91019982Y-108791399D01*
X90979084Y-108926223D01*
X90950149Y-109220000D01*
X90979084Y-109513777D01*
X91064775Y-109796264D01*
X91203931Y-110056606D01*
X91391203Y-110284797D01*
X91619394Y-110472069D01*
X91659433Y-110493470D01*
X91445707Y-110653146D01*
X91249183Y-110871512D01*
X91099036Y-111124022D01*
X91001037Y-111400973D01*
X91121536Y-111633000D01*
X92329000Y-111633000D01*
X92329000Y-111613000D01*
X92583000Y-111613000D01*
X92583000Y-111633000D01*
X94869000Y-111633000D01*
X94869000Y-111613000D01*
X95123000Y-111613000D01*
X95123000Y-111633000D01*
X97409000Y-111633000D01*
X97409000Y-111613000D01*
X97663000Y-111613000D01*
X97663000Y-111633000D01*
X99949000Y-111633000D01*
X99949000Y-111613000D01*
X100203000Y-111613000D01*
X100203000Y-111633000D01*
X102489000Y-111633000D01*
X102489000Y-111613000D01*
X102743000Y-111613000D01*
X102743000Y-111633000D01*
X105029000Y-111633000D01*
X105029000Y-111613000D01*
X105283000Y-111613000D01*
X105283000Y-111633000D01*
X107569000Y-111633000D01*
X107569000Y-111613000D01*
X107823000Y-111613000D01*
X107823000Y-111633000D01*
X110109000Y-111633000D01*
X110109000Y-111613000D01*
X110363000Y-111613000D01*
X110363000Y-111633000D01*
X112649000Y-111633000D01*
X112649000Y-111613000D01*
X112903000Y-111613000D01*
X112903000Y-111633000D01*
X112923000Y-111633000D01*
X112923000Y-111887000D01*
X112903000Y-111887000D01*
X112903000Y-113093817D01*
X113135026Y-113214958D01*
X113285814Y-113169222D01*
X113550944Y-113042684D01*
X113786293Y-112866854D01*
X113982817Y-112648488D01*
X114040137Y-112552090D01*
X114063931Y-112596606D01*
X114251203Y-112824797D01*
X114479394Y-113012069D01*
X114739736Y-113151225D01*
X115022223Y-113236916D01*
X115242381Y-113258600D01*
X115389619Y-113258600D01*
X115609777Y-113236916D01*
X115892264Y-113151225D01*
X116152606Y-113012069D01*
X116380797Y-112824797D01*
X116568069Y-112596606D01*
X116707225Y-112336264D01*
X116792916Y-112053777D01*
X116821851Y-111760000D01*
X116792916Y-111466223D01*
X116707225Y-111183736D01*
X116699135Y-111168601D01*
X124758077Y-111168601D01*
X124795399Y-111172277D01*
X124832721Y-111168601D01*
X124832732Y-111168601D01*
X124944385Y-111157604D01*
X125087646Y-111114147D01*
X125219675Y-111043575D01*
X125335400Y-110948602D01*
X125359203Y-110919598D01*
X126018235Y-110260567D01*
X126044487Y-110527111D01*
X126129401Y-110807034D01*
X126267294Y-111065014D01*
X126452866Y-111291134D01*
X126678986Y-111476706D01*
X126733791Y-111506000D01*
X126678986Y-111535294D01*
X126452866Y-111720866D01*
X126267294Y-111946986D01*
X126129401Y-112204966D01*
X126044487Y-112484889D01*
X126015815Y-112776000D01*
X126044487Y-113067111D01*
X126129401Y-113347034D01*
X126267294Y-113605014D01*
X126452866Y-113831134D01*
X126678986Y-114016706D01*
X126743523Y-114051201D01*
X126626645Y-114120822D01*
X126410412Y-114315731D01*
X126236359Y-114549080D01*
X126111175Y-114811901D01*
X126066524Y-114959110D01*
X126187845Y-115189000D01*
X127381000Y-115189000D01*
X127381000Y-115169000D01*
X127635000Y-115169000D01*
X127635000Y-115189000D01*
X127655000Y-115189000D01*
X127655000Y-115443000D01*
X127635000Y-115443000D01*
X127635000Y-116636814D01*
X127864891Y-116757481D01*
X128139252Y-116660157D01*
X128389355Y-116511178D01*
X128605588Y-116316269D01*
X128779641Y-116082920D01*
X128880001Y-115872217D01*
X128880001Y-118212000D01*
X77876000Y-118212000D01*
X77876000Y-116988690D01*
X78009724Y-116988690D01*
X78054375Y-117135899D01*
X78179559Y-117398720D01*
X78353612Y-117632069D01*
X78569845Y-117826978D01*
X78819948Y-117975957D01*
X79094309Y-118073281D01*
X79324200Y-117952614D01*
X79324200Y-116758800D01*
X79578200Y-116758800D01*
X79578200Y-117952614D01*
X79808091Y-118073281D01*
X80082452Y-117975957D01*
X80332555Y-117826978D01*
X80548788Y-117632069D01*
X80722841Y-117398720D01*
X80848025Y-117135899D01*
X80892676Y-116988690D01*
X80771355Y-116758800D01*
X79578200Y-116758800D01*
X79324200Y-116758800D01*
X78131045Y-116758800D01*
X78009724Y-116988690D01*
X77876000Y-116988690D01*
X77876000Y-102260000D01*
X128880000Y-102260000D01*
X128880000Y-103941104D01*
M02*
