G04 #@! TF.GenerationSoftware,KiCad,Pcbnew,5.1.1-8be2ce7~80~ubuntu18.10.1*
G04 #@! TF.CreationDate,2019-05-27T02:03:18+08:00*
G04 #@! TF.ProjectId,jtagboard,6a746167-626f-4617-9264-2e6b69636164,rev?*
G04 #@! TF.SameCoordinates,Original*
G04 #@! TF.FileFunction,Soldermask,Bot*
G04 #@! TF.FilePolarity,Negative*
%FSLAX46Y46*%
G04 Gerber Fmt 4.6, Leading zero omitted, Abs format (unit mm)*
G04 Created by KiCad (PCBNEW 5.1.1-8be2ce7~80~ubuntu18.10.1) date 2019-05-27 02:03:18*
%MOMM*%
%LPD*%
G04 APERTURE LIST*
%ADD10C,0.100000*%
G04 APERTURE END LIST*
D10*
G36*
X79561643Y-115737319D02*
G01*
X79627827Y-115743837D01*
X79797666Y-115795357D01*
X79954191Y-115879022D01*
X79989929Y-115908352D01*
X80091386Y-115991614D01*
X80174648Y-116093071D01*
X80203978Y-116128809D01*
X80287643Y-116285334D01*
X80339163Y-116455173D01*
X80356559Y-116631800D01*
X80339163Y-116808427D01*
X80287643Y-116978266D01*
X80203978Y-117134791D01*
X80174648Y-117170529D01*
X80091386Y-117271986D01*
X79989929Y-117355248D01*
X79954191Y-117384578D01*
X79797666Y-117468243D01*
X79627827Y-117519763D01*
X79561643Y-117526281D01*
X79495460Y-117532800D01*
X79406940Y-117532800D01*
X79340757Y-117526281D01*
X79274573Y-117519763D01*
X79104734Y-117468243D01*
X78948209Y-117384578D01*
X78912471Y-117355248D01*
X78811014Y-117271986D01*
X78727752Y-117170529D01*
X78698422Y-117134791D01*
X78614757Y-116978266D01*
X78563237Y-116808427D01*
X78545841Y-116631800D01*
X78563237Y-116455173D01*
X78614757Y-116285334D01*
X78698422Y-116128809D01*
X78727752Y-116093071D01*
X78811014Y-115991614D01*
X78912471Y-115908352D01*
X78948209Y-115879022D01*
X79104734Y-115795357D01*
X79274573Y-115743837D01*
X79340757Y-115737319D01*
X79406940Y-115730800D01*
X79495460Y-115730800D01*
X79561643Y-115737319D01*
X79561643Y-115737319D01*
G37*
G36*
X127618442Y-114421518D02*
G01*
X127684627Y-114428037D01*
X127854466Y-114479557D01*
X128010991Y-114563222D01*
X128046729Y-114592552D01*
X128148186Y-114675814D01*
X128194284Y-114731986D01*
X128260778Y-114813009D01*
X128344443Y-114969534D01*
X128395963Y-115139373D01*
X128413359Y-115316000D01*
X128395963Y-115492627D01*
X128344443Y-115662466D01*
X128260778Y-115818991D01*
X128231448Y-115854729D01*
X128148186Y-115956186D01*
X128046729Y-116039448D01*
X128010991Y-116068778D01*
X127854466Y-116152443D01*
X127684627Y-116203963D01*
X127618443Y-116210481D01*
X127552260Y-116217000D01*
X127463740Y-116217000D01*
X127397557Y-116210481D01*
X127331373Y-116203963D01*
X127161534Y-116152443D01*
X127005009Y-116068778D01*
X126969271Y-116039448D01*
X126867814Y-115956186D01*
X126784552Y-115854729D01*
X126755222Y-115818991D01*
X126671557Y-115662466D01*
X126620037Y-115492627D01*
X126602641Y-115316000D01*
X126620037Y-115139373D01*
X126671557Y-114969534D01*
X126755222Y-114813009D01*
X126821716Y-114731986D01*
X126867814Y-114675814D01*
X126969271Y-114592552D01*
X127005009Y-114563222D01*
X127161534Y-114479557D01*
X127331373Y-114428037D01*
X127397558Y-114421518D01*
X127463740Y-114415000D01*
X127552260Y-114415000D01*
X127618442Y-114421518D01*
X127618442Y-114421518D01*
G37*
G36*
X79561642Y-113197318D02*
G01*
X79627827Y-113203837D01*
X79797666Y-113255357D01*
X79954191Y-113339022D01*
X79989929Y-113368352D01*
X80091386Y-113451614D01*
X80174648Y-113553071D01*
X80203978Y-113588809D01*
X80287643Y-113745334D01*
X80339163Y-113915173D01*
X80356559Y-114091800D01*
X80339163Y-114268427D01*
X80287643Y-114438266D01*
X80203978Y-114594791D01*
X80174648Y-114630529D01*
X80091386Y-114731986D01*
X79992658Y-114813009D01*
X79954191Y-114844578D01*
X79797666Y-114928243D01*
X79627827Y-114979763D01*
X79561643Y-114986281D01*
X79495460Y-114992800D01*
X79406940Y-114992800D01*
X79340757Y-114986281D01*
X79274573Y-114979763D01*
X79104734Y-114928243D01*
X78948209Y-114844578D01*
X78909742Y-114813009D01*
X78811014Y-114731986D01*
X78727752Y-114630529D01*
X78698422Y-114594791D01*
X78614757Y-114438266D01*
X78563237Y-114268427D01*
X78545841Y-114091800D01*
X78563237Y-113915173D01*
X78614757Y-113745334D01*
X78698422Y-113588809D01*
X78727752Y-113553071D01*
X78811014Y-113451614D01*
X78912471Y-113368352D01*
X78948209Y-113339022D01*
X79104734Y-113255357D01*
X79274573Y-113203837D01*
X79340758Y-113197318D01*
X79406940Y-113190800D01*
X79495460Y-113190800D01*
X79561642Y-113197318D01*
X79561642Y-113197318D01*
G37*
G36*
X127618442Y-111881518D02*
G01*
X127684627Y-111888037D01*
X127854466Y-111939557D01*
X128010991Y-112023222D01*
X128046729Y-112052552D01*
X128148186Y-112135814D01*
X128194284Y-112191986D01*
X128260778Y-112273009D01*
X128344443Y-112429534D01*
X128395963Y-112599373D01*
X128413359Y-112776000D01*
X128395963Y-112952627D01*
X128344443Y-113122466D01*
X128260778Y-113278991D01*
X128231448Y-113314729D01*
X128148186Y-113416186D01*
X128046729Y-113499448D01*
X128010991Y-113528778D01*
X127854466Y-113612443D01*
X127684627Y-113663963D01*
X127618443Y-113670481D01*
X127552260Y-113677000D01*
X127463740Y-113677000D01*
X127397557Y-113670481D01*
X127331373Y-113663963D01*
X127161534Y-113612443D01*
X127005009Y-113528778D01*
X126969271Y-113499448D01*
X126867814Y-113416186D01*
X126784552Y-113314729D01*
X126755222Y-113278991D01*
X126671557Y-113122466D01*
X126620037Y-112952627D01*
X126602641Y-112776000D01*
X126620037Y-112599373D01*
X126671557Y-112429534D01*
X126755222Y-112273009D01*
X126821716Y-112191986D01*
X126867814Y-112135814D01*
X126969271Y-112052552D01*
X127005009Y-112023222D01*
X127161534Y-111939557D01*
X127331373Y-111888037D01*
X127397558Y-111881518D01*
X127463740Y-111875000D01*
X127552260Y-111875000D01*
X127618442Y-111881518D01*
X127618442Y-111881518D01*
G37*
G36*
X112955294Y-110858633D02*
G01*
X113127695Y-110910931D01*
X113286583Y-110995858D01*
X113425849Y-111110151D01*
X113540142Y-111249417D01*
X113625069Y-111408305D01*
X113677367Y-111580706D01*
X113695025Y-111760000D01*
X113677367Y-111939294D01*
X113625069Y-112111695D01*
X113540142Y-112270583D01*
X113425849Y-112409849D01*
X113286583Y-112524142D01*
X113127695Y-112609069D01*
X112955294Y-112661367D01*
X112820931Y-112674600D01*
X112731069Y-112674600D01*
X112596706Y-112661367D01*
X112424305Y-112609069D01*
X112265417Y-112524142D01*
X112126151Y-112409849D01*
X112011858Y-112270583D01*
X111926931Y-112111695D01*
X111874633Y-111939294D01*
X111856975Y-111760000D01*
X111874633Y-111580706D01*
X111926931Y-111408305D01*
X112011858Y-111249417D01*
X112126151Y-111110151D01*
X112265417Y-110995858D01*
X112424305Y-110910931D01*
X112596706Y-110858633D01*
X112731069Y-110845400D01*
X112820931Y-110845400D01*
X112955294Y-110858633D01*
X112955294Y-110858633D01*
G37*
G36*
X92635294Y-110858633D02*
G01*
X92807695Y-110910931D01*
X92966583Y-110995858D01*
X93105849Y-111110151D01*
X93220142Y-111249417D01*
X93305069Y-111408305D01*
X93357367Y-111580706D01*
X93375025Y-111760000D01*
X93357367Y-111939294D01*
X93305069Y-112111695D01*
X93220142Y-112270583D01*
X93105849Y-112409849D01*
X92966583Y-112524142D01*
X92807695Y-112609069D01*
X92635294Y-112661367D01*
X92500931Y-112674600D01*
X92411069Y-112674600D01*
X92276706Y-112661367D01*
X92104305Y-112609069D01*
X91945417Y-112524142D01*
X91806151Y-112409849D01*
X91691858Y-112270583D01*
X91606931Y-112111695D01*
X91554633Y-111939294D01*
X91536975Y-111760000D01*
X91554633Y-111580706D01*
X91606931Y-111408305D01*
X91691858Y-111249417D01*
X91806151Y-111110151D01*
X91945417Y-110995858D01*
X92104305Y-110910931D01*
X92276706Y-110858633D01*
X92411069Y-110845400D01*
X92500931Y-110845400D01*
X92635294Y-110858633D01*
X92635294Y-110858633D01*
G37*
G36*
X95175294Y-110858633D02*
G01*
X95347695Y-110910931D01*
X95506583Y-110995858D01*
X95645849Y-111110151D01*
X95760142Y-111249417D01*
X95845069Y-111408305D01*
X95897367Y-111580706D01*
X95915025Y-111760000D01*
X95897367Y-111939294D01*
X95845069Y-112111695D01*
X95760142Y-112270583D01*
X95645849Y-112409849D01*
X95506583Y-112524142D01*
X95347695Y-112609069D01*
X95175294Y-112661367D01*
X95040931Y-112674600D01*
X94951069Y-112674600D01*
X94816706Y-112661367D01*
X94644305Y-112609069D01*
X94485417Y-112524142D01*
X94346151Y-112409849D01*
X94231858Y-112270583D01*
X94146931Y-112111695D01*
X94094633Y-111939294D01*
X94076975Y-111760000D01*
X94094633Y-111580706D01*
X94146931Y-111408305D01*
X94231858Y-111249417D01*
X94346151Y-111110151D01*
X94485417Y-110995858D01*
X94644305Y-110910931D01*
X94816706Y-110858633D01*
X94951069Y-110845400D01*
X95040931Y-110845400D01*
X95175294Y-110858633D01*
X95175294Y-110858633D01*
G37*
G36*
X97715294Y-110858633D02*
G01*
X97887695Y-110910931D01*
X98046583Y-110995858D01*
X98185849Y-111110151D01*
X98300142Y-111249417D01*
X98385069Y-111408305D01*
X98437367Y-111580706D01*
X98455025Y-111760000D01*
X98437367Y-111939294D01*
X98385069Y-112111695D01*
X98300142Y-112270583D01*
X98185849Y-112409849D01*
X98046583Y-112524142D01*
X97887695Y-112609069D01*
X97715294Y-112661367D01*
X97580931Y-112674600D01*
X97491069Y-112674600D01*
X97356706Y-112661367D01*
X97184305Y-112609069D01*
X97025417Y-112524142D01*
X96886151Y-112409849D01*
X96771858Y-112270583D01*
X96686931Y-112111695D01*
X96634633Y-111939294D01*
X96616975Y-111760000D01*
X96634633Y-111580706D01*
X96686931Y-111408305D01*
X96771858Y-111249417D01*
X96886151Y-111110151D01*
X97025417Y-110995858D01*
X97184305Y-110910931D01*
X97356706Y-110858633D01*
X97491069Y-110845400D01*
X97580931Y-110845400D01*
X97715294Y-110858633D01*
X97715294Y-110858633D01*
G37*
G36*
X100255294Y-110858633D02*
G01*
X100427695Y-110910931D01*
X100586583Y-110995858D01*
X100725849Y-111110151D01*
X100840142Y-111249417D01*
X100925069Y-111408305D01*
X100977367Y-111580706D01*
X100995025Y-111760000D01*
X100977367Y-111939294D01*
X100925069Y-112111695D01*
X100840142Y-112270583D01*
X100725849Y-112409849D01*
X100586583Y-112524142D01*
X100427695Y-112609069D01*
X100255294Y-112661367D01*
X100120931Y-112674600D01*
X100031069Y-112674600D01*
X99896706Y-112661367D01*
X99724305Y-112609069D01*
X99565417Y-112524142D01*
X99426151Y-112409849D01*
X99311858Y-112270583D01*
X99226931Y-112111695D01*
X99174633Y-111939294D01*
X99156975Y-111760000D01*
X99174633Y-111580706D01*
X99226931Y-111408305D01*
X99311858Y-111249417D01*
X99426151Y-111110151D01*
X99565417Y-110995858D01*
X99724305Y-110910931D01*
X99896706Y-110858633D01*
X100031069Y-110845400D01*
X100120931Y-110845400D01*
X100255294Y-110858633D01*
X100255294Y-110858633D01*
G37*
G36*
X102795294Y-110858633D02*
G01*
X102967695Y-110910931D01*
X103126583Y-110995858D01*
X103265849Y-111110151D01*
X103380142Y-111249417D01*
X103465069Y-111408305D01*
X103517367Y-111580706D01*
X103535025Y-111760000D01*
X103517367Y-111939294D01*
X103465069Y-112111695D01*
X103380142Y-112270583D01*
X103265849Y-112409849D01*
X103126583Y-112524142D01*
X102967695Y-112609069D01*
X102795294Y-112661367D01*
X102660931Y-112674600D01*
X102571069Y-112674600D01*
X102436706Y-112661367D01*
X102264305Y-112609069D01*
X102105417Y-112524142D01*
X101966151Y-112409849D01*
X101851858Y-112270583D01*
X101766931Y-112111695D01*
X101714633Y-111939294D01*
X101696975Y-111760000D01*
X101714633Y-111580706D01*
X101766931Y-111408305D01*
X101851858Y-111249417D01*
X101966151Y-111110151D01*
X102105417Y-110995858D01*
X102264305Y-110910931D01*
X102436706Y-110858633D01*
X102571069Y-110845400D01*
X102660931Y-110845400D01*
X102795294Y-110858633D01*
X102795294Y-110858633D01*
G37*
G36*
X105335294Y-110858633D02*
G01*
X105507695Y-110910931D01*
X105666583Y-110995858D01*
X105805849Y-111110151D01*
X105920142Y-111249417D01*
X106005069Y-111408305D01*
X106057367Y-111580706D01*
X106075025Y-111760000D01*
X106057367Y-111939294D01*
X106005069Y-112111695D01*
X105920142Y-112270583D01*
X105805849Y-112409849D01*
X105666583Y-112524142D01*
X105507695Y-112609069D01*
X105335294Y-112661367D01*
X105200931Y-112674600D01*
X105111069Y-112674600D01*
X104976706Y-112661367D01*
X104804305Y-112609069D01*
X104645417Y-112524142D01*
X104506151Y-112409849D01*
X104391858Y-112270583D01*
X104306931Y-112111695D01*
X104254633Y-111939294D01*
X104236975Y-111760000D01*
X104254633Y-111580706D01*
X104306931Y-111408305D01*
X104391858Y-111249417D01*
X104506151Y-111110151D01*
X104645417Y-110995858D01*
X104804305Y-110910931D01*
X104976706Y-110858633D01*
X105111069Y-110845400D01*
X105200931Y-110845400D01*
X105335294Y-110858633D01*
X105335294Y-110858633D01*
G37*
G36*
X107875294Y-110858633D02*
G01*
X108047695Y-110910931D01*
X108206583Y-110995858D01*
X108345849Y-111110151D01*
X108460142Y-111249417D01*
X108545069Y-111408305D01*
X108597367Y-111580706D01*
X108615025Y-111760000D01*
X108597367Y-111939294D01*
X108545069Y-112111695D01*
X108460142Y-112270583D01*
X108345849Y-112409849D01*
X108206583Y-112524142D01*
X108047695Y-112609069D01*
X107875294Y-112661367D01*
X107740931Y-112674600D01*
X107651069Y-112674600D01*
X107516706Y-112661367D01*
X107344305Y-112609069D01*
X107185417Y-112524142D01*
X107046151Y-112409849D01*
X106931858Y-112270583D01*
X106846931Y-112111695D01*
X106794633Y-111939294D01*
X106776975Y-111760000D01*
X106794633Y-111580706D01*
X106846931Y-111408305D01*
X106931858Y-111249417D01*
X107046151Y-111110151D01*
X107185417Y-110995858D01*
X107344305Y-110910931D01*
X107516706Y-110858633D01*
X107651069Y-110845400D01*
X107740931Y-110845400D01*
X107875294Y-110858633D01*
X107875294Y-110858633D01*
G37*
G36*
X110415294Y-110858633D02*
G01*
X110587695Y-110910931D01*
X110746583Y-110995858D01*
X110885849Y-111110151D01*
X111000142Y-111249417D01*
X111085069Y-111408305D01*
X111137367Y-111580706D01*
X111155025Y-111760000D01*
X111137367Y-111939294D01*
X111085069Y-112111695D01*
X111000142Y-112270583D01*
X110885849Y-112409849D01*
X110746583Y-112524142D01*
X110587695Y-112609069D01*
X110415294Y-112661367D01*
X110280931Y-112674600D01*
X110191069Y-112674600D01*
X110056706Y-112661367D01*
X109884305Y-112609069D01*
X109725417Y-112524142D01*
X109586151Y-112409849D01*
X109471858Y-112270583D01*
X109386931Y-112111695D01*
X109334633Y-111939294D01*
X109316975Y-111760000D01*
X109334633Y-111580706D01*
X109386931Y-111408305D01*
X109471858Y-111249417D01*
X109586151Y-111110151D01*
X109725417Y-110995858D01*
X109884305Y-110910931D01*
X110056706Y-110858633D01*
X110191069Y-110845400D01*
X110280931Y-110845400D01*
X110415294Y-110858633D01*
X110415294Y-110858633D01*
G37*
G36*
X115495294Y-110858633D02*
G01*
X115667695Y-110910931D01*
X115826583Y-110995858D01*
X115965849Y-111110151D01*
X116080142Y-111249417D01*
X116165069Y-111408305D01*
X116217367Y-111580706D01*
X116235025Y-111760000D01*
X116217367Y-111939294D01*
X116165069Y-112111695D01*
X116080142Y-112270583D01*
X115965849Y-112409849D01*
X115826583Y-112524142D01*
X115667695Y-112609069D01*
X115495294Y-112661367D01*
X115360931Y-112674600D01*
X115271069Y-112674600D01*
X115136706Y-112661367D01*
X114964305Y-112609069D01*
X114805417Y-112524142D01*
X114666151Y-112409849D01*
X114551858Y-112270583D01*
X114466931Y-112111695D01*
X114414633Y-111939294D01*
X114396975Y-111760000D01*
X114414633Y-111580706D01*
X114466931Y-111408305D01*
X114551858Y-111249417D01*
X114666151Y-111110151D01*
X114805417Y-110995858D01*
X114964305Y-110910931D01*
X115136706Y-110858633D01*
X115271069Y-110845400D01*
X115360931Y-110845400D01*
X115495294Y-110858633D01*
X115495294Y-110858633D01*
G37*
G36*
X79561642Y-110657318D02*
G01*
X79627827Y-110663837D01*
X79797666Y-110715357D01*
X79954191Y-110799022D01*
X79989929Y-110828352D01*
X80091386Y-110911614D01*
X80160522Y-110995858D01*
X80203978Y-111048809D01*
X80287643Y-111205334D01*
X80339163Y-111375173D01*
X80356559Y-111551800D01*
X80339163Y-111728427D01*
X80287643Y-111898266D01*
X80203978Y-112054791D01*
X80174648Y-112090529D01*
X80091386Y-112191986D01*
X79995614Y-112270583D01*
X79954191Y-112304578D01*
X79797666Y-112388243D01*
X79627827Y-112439763D01*
X79561642Y-112446282D01*
X79495460Y-112452800D01*
X79406940Y-112452800D01*
X79340758Y-112446282D01*
X79274573Y-112439763D01*
X79104734Y-112388243D01*
X78948209Y-112304578D01*
X78906786Y-112270583D01*
X78811014Y-112191986D01*
X78727752Y-112090529D01*
X78698422Y-112054791D01*
X78614757Y-111898266D01*
X78563237Y-111728427D01*
X78545841Y-111551800D01*
X78563237Y-111375173D01*
X78614757Y-111205334D01*
X78698422Y-111048809D01*
X78741878Y-110995858D01*
X78811014Y-110911614D01*
X78912471Y-110828352D01*
X78948209Y-110799022D01*
X79104734Y-110715357D01*
X79274573Y-110663837D01*
X79340758Y-110657318D01*
X79406940Y-110650800D01*
X79495460Y-110650800D01*
X79561642Y-110657318D01*
X79561642Y-110657318D01*
G37*
G36*
X127618442Y-109341518D02*
G01*
X127684627Y-109348037D01*
X127854466Y-109399557D01*
X128010991Y-109483222D01*
X128046729Y-109512552D01*
X128148186Y-109595814D01*
X128194284Y-109651986D01*
X128260778Y-109733009D01*
X128344443Y-109889534D01*
X128395963Y-110059373D01*
X128413359Y-110236000D01*
X128395963Y-110412627D01*
X128344443Y-110582466D01*
X128260778Y-110738991D01*
X128231448Y-110774729D01*
X128148186Y-110876186D01*
X128046729Y-110959448D01*
X128010991Y-110988778D01*
X127854466Y-111072443D01*
X127684627Y-111123963D01*
X127618442Y-111130482D01*
X127552260Y-111137000D01*
X127463740Y-111137000D01*
X127397558Y-111130482D01*
X127331373Y-111123963D01*
X127161534Y-111072443D01*
X127005009Y-110988778D01*
X126969271Y-110959448D01*
X126867814Y-110876186D01*
X126784552Y-110774729D01*
X126755222Y-110738991D01*
X126671557Y-110582466D01*
X126620037Y-110412627D01*
X126602641Y-110236000D01*
X126620037Y-110059373D01*
X126671557Y-109889534D01*
X126755222Y-109733009D01*
X126821716Y-109651986D01*
X126867814Y-109595814D01*
X126969271Y-109512552D01*
X127005009Y-109483222D01*
X127161534Y-109399557D01*
X127331373Y-109348037D01*
X127397558Y-109341518D01*
X127463740Y-109335000D01*
X127552260Y-109335000D01*
X127618442Y-109341518D01*
X127618442Y-109341518D01*
G37*
G36*
X116230600Y-110134600D02*
G01*
X114401400Y-110134600D01*
X114401400Y-108305400D01*
X116230600Y-108305400D01*
X116230600Y-110134600D01*
X116230600Y-110134600D01*
G37*
G36*
X105335294Y-108318633D02*
G01*
X105507695Y-108370931D01*
X105666583Y-108455858D01*
X105805849Y-108570151D01*
X105920142Y-108709417D01*
X106005069Y-108868305D01*
X106057367Y-109040706D01*
X106075025Y-109220000D01*
X106057367Y-109399294D01*
X106005069Y-109571695D01*
X105920142Y-109730583D01*
X105805849Y-109869849D01*
X105666583Y-109984142D01*
X105507695Y-110069069D01*
X105335294Y-110121367D01*
X105200931Y-110134600D01*
X105111069Y-110134600D01*
X104976706Y-110121367D01*
X104804305Y-110069069D01*
X104645417Y-109984142D01*
X104506151Y-109869849D01*
X104391858Y-109730583D01*
X104306931Y-109571695D01*
X104254633Y-109399294D01*
X104236975Y-109220000D01*
X104254633Y-109040706D01*
X104306931Y-108868305D01*
X104391858Y-108709417D01*
X104506151Y-108570151D01*
X104645417Y-108455858D01*
X104804305Y-108370931D01*
X104976706Y-108318633D01*
X105111069Y-108305400D01*
X105200931Y-108305400D01*
X105335294Y-108318633D01*
X105335294Y-108318633D01*
G37*
G36*
X102795294Y-108318633D02*
G01*
X102967695Y-108370931D01*
X103126583Y-108455858D01*
X103265849Y-108570151D01*
X103380142Y-108709417D01*
X103465069Y-108868305D01*
X103517367Y-109040706D01*
X103535025Y-109220000D01*
X103517367Y-109399294D01*
X103465069Y-109571695D01*
X103380142Y-109730583D01*
X103265849Y-109869849D01*
X103126583Y-109984142D01*
X102967695Y-110069069D01*
X102795294Y-110121367D01*
X102660931Y-110134600D01*
X102571069Y-110134600D01*
X102436706Y-110121367D01*
X102264305Y-110069069D01*
X102105417Y-109984142D01*
X101966151Y-109869849D01*
X101851858Y-109730583D01*
X101766931Y-109571695D01*
X101714633Y-109399294D01*
X101696975Y-109220000D01*
X101714633Y-109040706D01*
X101766931Y-108868305D01*
X101851858Y-108709417D01*
X101966151Y-108570151D01*
X102105417Y-108455858D01*
X102264305Y-108370931D01*
X102436706Y-108318633D01*
X102571069Y-108305400D01*
X102660931Y-108305400D01*
X102795294Y-108318633D01*
X102795294Y-108318633D01*
G37*
G36*
X100255294Y-108318633D02*
G01*
X100427695Y-108370931D01*
X100586583Y-108455858D01*
X100725849Y-108570151D01*
X100840142Y-108709417D01*
X100925069Y-108868305D01*
X100977367Y-109040706D01*
X100995025Y-109220000D01*
X100977367Y-109399294D01*
X100925069Y-109571695D01*
X100840142Y-109730583D01*
X100725849Y-109869849D01*
X100586583Y-109984142D01*
X100427695Y-110069069D01*
X100255294Y-110121367D01*
X100120931Y-110134600D01*
X100031069Y-110134600D01*
X99896706Y-110121367D01*
X99724305Y-110069069D01*
X99565417Y-109984142D01*
X99426151Y-109869849D01*
X99311858Y-109730583D01*
X99226931Y-109571695D01*
X99174633Y-109399294D01*
X99156975Y-109220000D01*
X99174633Y-109040706D01*
X99226931Y-108868305D01*
X99311858Y-108709417D01*
X99426151Y-108570151D01*
X99565417Y-108455858D01*
X99724305Y-108370931D01*
X99896706Y-108318633D01*
X100031069Y-108305400D01*
X100120931Y-108305400D01*
X100255294Y-108318633D01*
X100255294Y-108318633D01*
G37*
G36*
X97715294Y-108318633D02*
G01*
X97887695Y-108370931D01*
X98046583Y-108455858D01*
X98185849Y-108570151D01*
X98300142Y-108709417D01*
X98385069Y-108868305D01*
X98437367Y-109040706D01*
X98455025Y-109220000D01*
X98437367Y-109399294D01*
X98385069Y-109571695D01*
X98300142Y-109730583D01*
X98185849Y-109869849D01*
X98046583Y-109984142D01*
X97887695Y-110069069D01*
X97715294Y-110121367D01*
X97580931Y-110134600D01*
X97491069Y-110134600D01*
X97356706Y-110121367D01*
X97184305Y-110069069D01*
X97025417Y-109984142D01*
X96886151Y-109869849D01*
X96771858Y-109730583D01*
X96686931Y-109571695D01*
X96634633Y-109399294D01*
X96616975Y-109220000D01*
X96634633Y-109040706D01*
X96686931Y-108868305D01*
X96771858Y-108709417D01*
X96886151Y-108570151D01*
X97025417Y-108455858D01*
X97184305Y-108370931D01*
X97356706Y-108318633D01*
X97491069Y-108305400D01*
X97580931Y-108305400D01*
X97715294Y-108318633D01*
X97715294Y-108318633D01*
G37*
G36*
X95175294Y-108318633D02*
G01*
X95347695Y-108370931D01*
X95506583Y-108455858D01*
X95645849Y-108570151D01*
X95760142Y-108709417D01*
X95845069Y-108868305D01*
X95897367Y-109040706D01*
X95915025Y-109220000D01*
X95897367Y-109399294D01*
X95845069Y-109571695D01*
X95760142Y-109730583D01*
X95645849Y-109869849D01*
X95506583Y-109984142D01*
X95347695Y-110069069D01*
X95175294Y-110121367D01*
X95040931Y-110134600D01*
X94951069Y-110134600D01*
X94816706Y-110121367D01*
X94644305Y-110069069D01*
X94485417Y-109984142D01*
X94346151Y-109869849D01*
X94231858Y-109730583D01*
X94146931Y-109571695D01*
X94094633Y-109399294D01*
X94076975Y-109220000D01*
X94094633Y-109040706D01*
X94146931Y-108868305D01*
X94231858Y-108709417D01*
X94346151Y-108570151D01*
X94485417Y-108455858D01*
X94644305Y-108370931D01*
X94816706Y-108318633D01*
X94951069Y-108305400D01*
X95040931Y-108305400D01*
X95175294Y-108318633D01*
X95175294Y-108318633D01*
G37*
G36*
X92635294Y-108318633D02*
G01*
X92807695Y-108370931D01*
X92966583Y-108455858D01*
X93105849Y-108570151D01*
X93220142Y-108709417D01*
X93305069Y-108868305D01*
X93357367Y-109040706D01*
X93375025Y-109220000D01*
X93357367Y-109399294D01*
X93305069Y-109571695D01*
X93220142Y-109730583D01*
X93105849Y-109869849D01*
X92966583Y-109984142D01*
X92807695Y-110069069D01*
X92635294Y-110121367D01*
X92500931Y-110134600D01*
X92411069Y-110134600D01*
X92276706Y-110121367D01*
X92104305Y-110069069D01*
X91945417Y-109984142D01*
X91806151Y-109869849D01*
X91691858Y-109730583D01*
X91606931Y-109571695D01*
X91554633Y-109399294D01*
X91536975Y-109220000D01*
X91554633Y-109040706D01*
X91606931Y-108868305D01*
X91691858Y-108709417D01*
X91806151Y-108570151D01*
X91945417Y-108455858D01*
X92104305Y-108370931D01*
X92276706Y-108318633D01*
X92411069Y-108305400D01*
X92500931Y-108305400D01*
X92635294Y-108318633D01*
X92635294Y-108318633D01*
G37*
G36*
X110415294Y-108318633D02*
G01*
X110587695Y-108370931D01*
X110746583Y-108455858D01*
X110885849Y-108570151D01*
X111000142Y-108709417D01*
X111085069Y-108868305D01*
X111137367Y-109040706D01*
X111155025Y-109220000D01*
X111137367Y-109399294D01*
X111085069Y-109571695D01*
X111000142Y-109730583D01*
X110885849Y-109869849D01*
X110746583Y-109984142D01*
X110587695Y-110069069D01*
X110415294Y-110121367D01*
X110280931Y-110134600D01*
X110191069Y-110134600D01*
X110056706Y-110121367D01*
X109884305Y-110069069D01*
X109725417Y-109984142D01*
X109586151Y-109869849D01*
X109471858Y-109730583D01*
X109386931Y-109571695D01*
X109334633Y-109399294D01*
X109316975Y-109220000D01*
X109334633Y-109040706D01*
X109386931Y-108868305D01*
X109471858Y-108709417D01*
X109586151Y-108570151D01*
X109725417Y-108455858D01*
X109884305Y-108370931D01*
X110056706Y-108318633D01*
X110191069Y-108305400D01*
X110280931Y-108305400D01*
X110415294Y-108318633D01*
X110415294Y-108318633D01*
G37*
G36*
X107875294Y-108318633D02*
G01*
X108047695Y-108370931D01*
X108206583Y-108455858D01*
X108345849Y-108570151D01*
X108460142Y-108709417D01*
X108545069Y-108868305D01*
X108597367Y-109040706D01*
X108615025Y-109220000D01*
X108597367Y-109399294D01*
X108545069Y-109571695D01*
X108460142Y-109730583D01*
X108345849Y-109869849D01*
X108206583Y-109984142D01*
X108047695Y-110069069D01*
X107875294Y-110121367D01*
X107740931Y-110134600D01*
X107651069Y-110134600D01*
X107516706Y-110121367D01*
X107344305Y-110069069D01*
X107185417Y-109984142D01*
X107046151Y-109869849D01*
X106931858Y-109730583D01*
X106846931Y-109571695D01*
X106794633Y-109399294D01*
X106776975Y-109220000D01*
X106794633Y-109040706D01*
X106846931Y-108868305D01*
X106931858Y-108709417D01*
X107046151Y-108570151D01*
X107185417Y-108455858D01*
X107344305Y-108370931D01*
X107516706Y-108318633D01*
X107651069Y-108305400D01*
X107740931Y-108305400D01*
X107875294Y-108318633D01*
X107875294Y-108318633D01*
G37*
G36*
X112955294Y-108318633D02*
G01*
X113127695Y-108370931D01*
X113286583Y-108455858D01*
X113425849Y-108570151D01*
X113540142Y-108709417D01*
X113625069Y-108868305D01*
X113677367Y-109040706D01*
X113695025Y-109220000D01*
X113677367Y-109399294D01*
X113625069Y-109571695D01*
X113540142Y-109730583D01*
X113425849Y-109869849D01*
X113286583Y-109984142D01*
X113127695Y-110069069D01*
X112955294Y-110121367D01*
X112820931Y-110134600D01*
X112731069Y-110134600D01*
X112596706Y-110121367D01*
X112424305Y-110069069D01*
X112265417Y-109984142D01*
X112126151Y-109869849D01*
X112011858Y-109730583D01*
X111926931Y-109571695D01*
X111874633Y-109399294D01*
X111856975Y-109220000D01*
X111874633Y-109040706D01*
X111926931Y-108868305D01*
X112011858Y-108709417D01*
X112126151Y-108570151D01*
X112265417Y-108455858D01*
X112424305Y-108370931D01*
X112596706Y-108318633D01*
X112731069Y-108305400D01*
X112820931Y-108305400D01*
X112955294Y-108318633D01*
X112955294Y-108318633D01*
G37*
G36*
X79561643Y-108117319D02*
G01*
X79627827Y-108123837D01*
X79797666Y-108175357D01*
X79954191Y-108259022D01*
X79989929Y-108288352D01*
X80091386Y-108371614D01*
X80160522Y-108455858D01*
X80203978Y-108508809D01*
X80287643Y-108665334D01*
X80339163Y-108835173D01*
X80356559Y-109011800D01*
X80339163Y-109188427D01*
X80287643Y-109358266D01*
X80203978Y-109514791D01*
X80174648Y-109550529D01*
X80091386Y-109651986D01*
X79995614Y-109730583D01*
X79954191Y-109764578D01*
X79797666Y-109848243D01*
X79627827Y-109899763D01*
X79561642Y-109906282D01*
X79495460Y-109912800D01*
X79406940Y-109912800D01*
X79340758Y-109906282D01*
X79274573Y-109899763D01*
X79104734Y-109848243D01*
X78948209Y-109764578D01*
X78906786Y-109730583D01*
X78811014Y-109651986D01*
X78727752Y-109550529D01*
X78698422Y-109514791D01*
X78614757Y-109358266D01*
X78563237Y-109188427D01*
X78545841Y-109011800D01*
X78563237Y-108835173D01*
X78614757Y-108665334D01*
X78698422Y-108508809D01*
X78741878Y-108455858D01*
X78811014Y-108371614D01*
X78912471Y-108288352D01*
X78948209Y-108259022D01*
X79104734Y-108175357D01*
X79274573Y-108123837D01*
X79340757Y-108117319D01*
X79406940Y-108110800D01*
X79495460Y-108110800D01*
X79561643Y-108117319D01*
X79561643Y-108117319D01*
G37*
G36*
X127618443Y-106801519D02*
G01*
X127684627Y-106808037D01*
X127854466Y-106859557D01*
X128010991Y-106943222D01*
X128046729Y-106972552D01*
X128148186Y-107055814D01*
X128194284Y-107111986D01*
X128260778Y-107193009D01*
X128344443Y-107349534D01*
X128395963Y-107519373D01*
X128413359Y-107696000D01*
X128395963Y-107872627D01*
X128344443Y-108042466D01*
X128260778Y-108198991D01*
X128231448Y-108234729D01*
X128148186Y-108336186D01*
X128046729Y-108419448D01*
X128010991Y-108448778D01*
X127854466Y-108532443D01*
X127684627Y-108583963D01*
X127618442Y-108590482D01*
X127552260Y-108597000D01*
X127463740Y-108597000D01*
X127397558Y-108590482D01*
X127331373Y-108583963D01*
X127161534Y-108532443D01*
X127005009Y-108448778D01*
X126969271Y-108419448D01*
X126867814Y-108336186D01*
X126784552Y-108234729D01*
X126755222Y-108198991D01*
X126671557Y-108042466D01*
X126620037Y-107872627D01*
X126602641Y-107696000D01*
X126620037Y-107519373D01*
X126671557Y-107349534D01*
X126755222Y-107193009D01*
X126821716Y-107111986D01*
X126867814Y-107055814D01*
X126969271Y-106972552D01*
X127005009Y-106943222D01*
X127161534Y-106859557D01*
X127331373Y-106808037D01*
X127397557Y-106801519D01*
X127463740Y-106795000D01*
X127552260Y-106795000D01*
X127618443Y-106801519D01*
X127618443Y-106801519D01*
G37*
G36*
X79561643Y-105577319D02*
G01*
X79627827Y-105583837D01*
X79797666Y-105635357D01*
X79954191Y-105719022D01*
X79989929Y-105748352D01*
X80091386Y-105831614D01*
X80174648Y-105933071D01*
X80203978Y-105968809D01*
X80287643Y-106125334D01*
X80339163Y-106295173D01*
X80356559Y-106471800D01*
X80339163Y-106648427D01*
X80287643Y-106818266D01*
X80203978Y-106974791D01*
X80174648Y-107010529D01*
X80091386Y-107111986D01*
X79992658Y-107193009D01*
X79954191Y-107224578D01*
X79797666Y-107308243D01*
X79627827Y-107359763D01*
X79561642Y-107366282D01*
X79495460Y-107372800D01*
X79406940Y-107372800D01*
X79340758Y-107366282D01*
X79274573Y-107359763D01*
X79104734Y-107308243D01*
X78948209Y-107224578D01*
X78909742Y-107193009D01*
X78811014Y-107111986D01*
X78727752Y-107010529D01*
X78698422Y-106974791D01*
X78614757Y-106818266D01*
X78563237Y-106648427D01*
X78545841Y-106471800D01*
X78563237Y-106295173D01*
X78614757Y-106125334D01*
X78698422Y-105968809D01*
X78727752Y-105933071D01*
X78811014Y-105831614D01*
X78912471Y-105748352D01*
X78948209Y-105719022D01*
X79104734Y-105635357D01*
X79274573Y-105583837D01*
X79340757Y-105577319D01*
X79406940Y-105570800D01*
X79495460Y-105570800D01*
X79561643Y-105577319D01*
X79561643Y-105577319D01*
G37*
G36*
X128409000Y-106057000D02*
G01*
X126607000Y-106057000D01*
X126607000Y-104255000D01*
X128409000Y-104255000D01*
X128409000Y-106057000D01*
X128409000Y-106057000D01*
G37*
G36*
X80352200Y-104832800D02*
G01*
X78550200Y-104832800D01*
X78550200Y-103030800D01*
X80352200Y-103030800D01*
X80352200Y-104832800D01*
X80352200Y-104832800D01*
G37*
M02*
