G04 #@! TF.GenerationSoftware,KiCad,Pcbnew,5.1.1-8be2ce7~80~ubuntu18.10.1*
G04 #@! TF.CreationDate,2019-05-27T02:03:18+08:00*
G04 #@! TF.ProjectId,jtagboard,6a746167-626f-4617-9264-2e6b69636164,rev?*
G04 #@! TF.SameCoordinates,Original*
G04 #@! TF.FileFunction,Legend,Top*
G04 #@! TF.FilePolarity,Positive*
%FSLAX46Y46*%
G04 Gerber Fmt 4.6, Leading zero omitted, Abs format (unit mm)*
G04 Created by KiCad (PCBNEW 5.1.1-8be2ce7~80~ubuntu18.10.1) date 2019-05-27 02:03:18*
%MOMM*%
%LPD*%
G04 APERTURE LIST*
%ADD10C,0.150000*%
%ADD11C,0.010000*%
%ADD12C,0.120000*%
G04 APERTURE END LIST*
D10*
X121191976Y-108608761D02*
X121334833Y-108656380D01*
X121572928Y-108656380D01*
X121668166Y-108608761D01*
X121715785Y-108561142D01*
X121763404Y-108465904D01*
X121763404Y-108370666D01*
X121715785Y-108275428D01*
X121668166Y-108227809D01*
X121572928Y-108180190D01*
X121382452Y-108132571D01*
X121287214Y-108084952D01*
X121239595Y-108037333D01*
X121191976Y-107942095D01*
X121191976Y-107846857D01*
X121239595Y-107751619D01*
X121287214Y-107704000D01*
X121382452Y-107656380D01*
X121620547Y-107656380D01*
X121763404Y-107704000D01*
X122096738Y-107656380D02*
X122334833Y-108656380D01*
X122525309Y-107942095D01*
X122715785Y-108656380D01*
X122953880Y-107656380D01*
X123334833Y-108656380D02*
X123334833Y-107656380D01*
X123572928Y-107656380D01*
X123715785Y-107704000D01*
X123811023Y-107799238D01*
X123858642Y-107894476D01*
X123906261Y-108084952D01*
X123906261Y-108227809D01*
X123858642Y-108418285D01*
X123811023Y-108513523D01*
X123715785Y-108608761D01*
X123572928Y-108656380D01*
X123334833Y-108656380D01*
X124334833Y-108656380D02*
X124334833Y-107656380D01*
X125001500Y-107656380D02*
X125191976Y-107656380D01*
X125287214Y-107704000D01*
X125382452Y-107799238D01*
X125430071Y-107989714D01*
X125430071Y-108323047D01*
X125382452Y-108513523D01*
X125287214Y-108608761D01*
X125191976Y-108656380D01*
X125001500Y-108656380D01*
X124906261Y-108608761D01*
X124811023Y-108513523D01*
X124763404Y-108323047D01*
X124763404Y-107989714D01*
X124811023Y-107799238D01*
X124906261Y-107704000D01*
X125001500Y-107656380D01*
X122475809Y-105116380D02*
X123094857Y-105116380D01*
X122761523Y-105497333D01*
X122904380Y-105497333D01*
X122999619Y-105544952D01*
X123047238Y-105592571D01*
X123094857Y-105687809D01*
X123094857Y-105925904D01*
X123047238Y-106021142D01*
X122999619Y-106068761D01*
X122904380Y-106116380D01*
X122618666Y-106116380D01*
X122523428Y-106068761D01*
X122475809Y-106021142D01*
X123523428Y-106021142D02*
X123571047Y-106068761D01*
X123523428Y-106116380D01*
X123475809Y-106068761D01*
X123523428Y-106021142D01*
X123523428Y-106116380D01*
X123904380Y-105116380D02*
X124523428Y-105116380D01*
X124190095Y-105497333D01*
X124332952Y-105497333D01*
X124428190Y-105544952D01*
X124475809Y-105592571D01*
X124523428Y-105687809D01*
X124523428Y-105925904D01*
X124475809Y-106021142D01*
X124428190Y-106068761D01*
X124332952Y-106116380D01*
X124047238Y-106116380D01*
X123952000Y-106068761D01*
X123904380Y-106021142D01*
X124809142Y-105116380D02*
X125142476Y-106116380D01*
X125475809Y-105116380D01*
X122571047Y-113688761D02*
X122713904Y-113736380D01*
X122952000Y-113736380D01*
X123047238Y-113688761D01*
X123094857Y-113641142D01*
X123142476Y-113545904D01*
X123142476Y-113450666D01*
X123094857Y-113355428D01*
X123047238Y-113307809D01*
X122952000Y-113260190D01*
X122761523Y-113212571D01*
X122666285Y-113164952D01*
X122618666Y-113117333D01*
X122571047Y-113022095D01*
X122571047Y-112926857D01*
X122618666Y-112831619D01*
X122666285Y-112784000D01*
X122761523Y-112736380D01*
X122999619Y-112736380D01*
X123142476Y-112784000D01*
X123475809Y-112736380D02*
X123713904Y-113736380D01*
X123904380Y-113022095D01*
X124094857Y-113736380D01*
X124332952Y-112736380D01*
X124904380Y-112736380D02*
X125094857Y-112736380D01*
X125190095Y-112784000D01*
X125285333Y-112879238D01*
X125332952Y-113069714D01*
X125332952Y-113403047D01*
X125285333Y-113593523D01*
X125190095Y-113688761D01*
X125094857Y-113736380D01*
X124904380Y-113736380D01*
X124809142Y-113688761D01*
X124713904Y-113593523D01*
X124666285Y-113403047D01*
X124666285Y-113069714D01*
X124713904Y-112879238D01*
X124809142Y-112784000D01*
X124904380Y-112736380D01*
X121182095Y-110831761D02*
X121324952Y-110879380D01*
X121563047Y-110879380D01*
X121658285Y-110831761D01*
X121705904Y-110784142D01*
X121753523Y-110688904D01*
X121753523Y-110593666D01*
X121705904Y-110498428D01*
X121658285Y-110450809D01*
X121563047Y-110403190D01*
X121372571Y-110355571D01*
X121277333Y-110307952D01*
X121229714Y-110260333D01*
X121182095Y-110165095D01*
X121182095Y-110069857D01*
X121229714Y-109974619D01*
X121277333Y-109927000D01*
X121372571Y-109879380D01*
X121610666Y-109879380D01*
X121753523Y-109927000D01*
X122086857Y-109879380D02*
X122324952Y-110879380D01*
X122515428Y-110165095D01*
X122705904Y-110879380D01*
X122944000Y-109879380D01*
X123896380Y-110784142D02*
X123848761Y-110831761D01*
X123705904Y-110879380D01*
X123610666Y-110879380D01*
X123467809Y-110831761D01*
X123372571Y-110736523D01*
X123324952Y-110641285D01*
X123277333Y-110450809D01*
X123277333Y-110307952D01*
X123324952Y-110117476D01*
X123372571Y-110022238D01*
X123467809Y-109927000D01*
X123610666Y-109879380D01*
X123705904Y-109879380D01*
X123848761Y-109927000D01*
X123896380Y-109974619D01*
X124801142Y-110879380D02*
X124324952Y-110879380D01*
X124324952Y-109879380D01*
X125134476Y-110879380D02*
X125134476Y-109879380D01*
X125705904Y-110879380D02*
X125277333Y-110307952D01*
X125705904Y-109879380D02*
X125134476Y-110450809D01*
X123190095Y-115324000D02*
X123094857Y-115276380D01*
X122952000Y-115276380D01*
X122809142Y-115324000D01*
X122713904Y-115419238D01*
X122666285Y-115514476D01*
X122618666Y-115704952D01*
X122618666Y-115847809D01*
X122666285Y-116038285D01*
X122713904Y-116133523D01*
X122809142Y-116228761D01*
X122952000Y-116276380D01*
X123047238Y-116276380D01*
X123190095Y-116228761D01*
X123237714Y-116181142D01*
X123237714Y-115847809D01*
X123047238Y-115847809D01*
X123666285Y-116276380D02*
X123666285Y-115276380D01*
X124237714Y-116276380D01*
X124237714Y-115276380D01*
X124713904Y-116276380D02*
X124713904Y-115276380D01*
X124952000Y-115276380D01*
X125094857Y-115324000D01*
X125190095Y-115419238D01*
X125237714Y-115514476D01*
X125285333Y-115704952D01*
X125285333Y-115847809D01*
X125237714Y-116038285D01*
X125190095Y-116133523D01*
X125094857Y-116228761D01*
X124952000Y-116276380D01*
X124713904Y-116276380D01*
X82042095Y-116340000D02*
X81946857Y-116292380D01*
X81804000Y-116292380D01*
X81661142Y-116340000D01*
X81565904Y-116435238D01*
X81518285Y-116530476D01*
X81470666Y-116720952D01*
X81470666Y-116863809D01*
X81518285Y-117054285D01*
X81565904Y-117149523D01*
X81661142Y-117244761D01*
X81804000Y-117292380D01*
X81899238Y-117292380D01*
X82042095Y-117244761D01*
X82089714Y-117197142D01*
X82089714Y-116863809D01*
X81899238Y-116863809D01*
X82518285Y-117292380D02*
X82518285Y-116292380D01*
X83089714Y-117292380D01*
X83089714Y-116292380D01*
X83565904Y-117292380D02*
X83565904Y-116292380D01*
X83804000Y-116292380D01*
X83946857Y-116340000D01*
X84042095Y-116435238D01*
X84089714Y-116530476D01*
X84137333Y-116720952D01*
X84137333Y-116863809D01*
X84089714Y-117054285D01*
X84042095Y-117149523D01*
X83946857Y-117244761D01*
X83804000Y-117292380D01*
X83565904Y-117292380D01*
X81669142Y-114752380D02*
X81669142Y-113752380D01*
X82240571Y-114752380D01*
X82240571Y-113752380D01*
X83288190Y-114752380D02*
X82954857Y-114276190D01*
X82716761Y-114752380D02*
X82716761Y-113752380D01*
X83097714Y-113752380D01*
X83192952Y-113800000D01*
X83240571Y-113847619D01*
X83288190Y-113942857D01*
X83288190Y-114085714D01*
X83240571Y-114180952D01*
X83192952Y-114228571D01*
X83097714Y-114276190D01*
X82716761Y-114276190D01*
X83669142Y-114704761D02*
X83812000Y-114752380D01*
X84050095Y-114752380D01*
X84145333Y-114704761D01*
X84192952Y-114657142D01*
X84240571Y-114561904D01*
X84240571Y-114466666D01*
X84192952Y-114371428D01*
X84145333Y-114323809D01*
X84050095Y-114276190D01*
X83859619Y-114228571D01*
X83764380Y-114180952D01*
X83716761Y-114133333D01*
X83669142Y-114038095D01*
X83669142Y-113942857D01*
X83716761Y-113847619D01*
X83764380Y-113800000D01*
X83859619Y-113752380D01*
X84097714Y-113752380D01*
X84240571Y-113800000D01*
X84526285Y-113752380D02*
X85097714Y-113752380D01*
X84812000Y-114752380D02*
X84812000Y-113752380D01*
X81423047Y-111656761D02*
X81565904Y-111704380D01*
X81804000Y-111704380D01*
X81899238Y-111656761D01*
X81946857Y-111609142D01*
X81994476Y-111513904D01*
X81994476Y-111418666D01*
X81946857Y-111323428D01*
X81899238Y-111275809D01*
X81804000Y-111228190D01*
X81613523Y-111180571D01*
X81518285Y-111132952D01*
X81470666Y-111085333D01*
X81423047Y-110990095D01*
X81423047Y-110894857D01*
X81470666Y-110799619D01*
X81518285Y-110752000D01*
X81613523Y-110704380D01*
X81851619Y-110704380D01*
X81994476Y-110752000D01*
X82327809Y-110704380D02*
X82565904Y-111704380D01*
X82756380Y-110990095D01*
X82946857Y-111704380D01*
X83184952Y-110704380D01*
X83756380Y-110704380D02*
X83946857Y-110704380D01*
X84042095Y-110752000D01*
X84137333Y-110847238D01*
X84184952Y-111037714D01*
X84184952Y-111371047D01*
X84137333Y-111561523D01*
X84042095Y-111656761D01*
X83946857Y-111704380D01*
X83756380Y-111704380D01*
X83661142Y-111656761D01*
X83565904Y-111561523D01*
X83518285Y-111371047D01*
X83518285Y-111037714D01*
X83565904Y-110847238D01*
X83661142Y-110752000D01*
X83756380Y-110704380D01*
X81558095Y-109307761D02*
X81700952Y-109355380D01*
X81939047Y-109355380D01*
X82034285Y-109307761D01*
X82081904Y-109260142D01*
X82129523Y-109164904D01*
X82129523Y-109069666D01*
X82081904Y-108974428D01*
X82034285Y-108926809D01*
X81939047Y-108879190D01*
X81748571Y-108831571D01*
X81653333Y-108783952D01*
X81605714Y-108736333D01*
X81558095Y-108641095D01*
X81558095Y-108545857D01*
X81605714Y-108450619D01*
X81653333Y-108403000D01*
X81748571Y-108355380D01*
X81986666Y-108355380D01*
X82129523Y-108403000D01*
X82462857Y-108355380D02*
X82700952Y-109355380D01*
X82891428Y-108641095D01*
X83081904Y-109355380D01*
X83320000Y-108355380D01*
X84272380Y-109260142D02*
X84224761Y-109307761D01*
X84081904Y-109355380D01*
X83986666Y-109355380D01*
X83843809Y-109307761D01*
X83748571Y-109212523D01*
X83700952Y-109117285D01*
X83653333Y-108926809D01*
X83653333Y-108783952D01*
X83700952Y-108593476D01*
X83748571Y-108498238D01*
X83843809Y-108403000D01*
X83986666Y-108355380D01*
X84081904Y-108355380D01*
X84224761Y-108403000D01*
X84272380Y-108450619D01*
X85177142Y-109355380D02*
X84700952Y-109355380D01*
X84700952Y-108355380D01*
X85510476Y-109355380D02*
X85510476Y-108355380D01*
X86081904Y-109355380D02*
X85653333Y-108783952D01*
X86081904Y-108355380D02*
X85510476Y-108926809D01*
X81700952Y-107084761D02*
X81843809Y-107132380D01*
X82081904Y-107132380D01*
X82177142Y-107084761D01*
X82224761Y-107037142D01*
X82272380Y-106941904D01*
X82272380Y-106846666D01*
X82224761Y-106751428D01*
X82177142Y-106703809D01*
X82081904Y-106656190D01*
X81891428Y-106608571D01*
X81796190Y-106560952D01*
X81748571Y-106513333D01*
X81700952Y-106418095D01*
X81700952Y-106322857D01*
X81748571Y-106227619D01*
X81796190Y-106180000D01*
X81891428Y-106132380D01*
X82129523Y-106132380D01*
X82272380Y-106180000D01*
X82605714Y-106132380D02*
X82843809Y-107132380D01*
X83034285Y-106418095D01*
X83224761Y-107132380D01*
X83462857Y-106132380D01*
X83843809Y-107132380D02*
X83843809Y-106132380D01*
X84081904Y-106132380D01*
X84224761Y-106180000D01*
X84320000Y-106275238D01*
X84367619Y-106370476D01*
X84415238Y-106560952D01*
X84415238Y-106703809D01*
X84367619Y-106894285D01*
X84320000Y-106989523D01*
X84224761Y-107084761D01*
X84081904Y-107132380D01*
X83843809Y-107132380D01*
X84843809Y-107132380D02*
X84843809Y-106132380D01*
X85510476Y-106132380D02*
X85700952Y-106132380D01*
X85796190Y-106180000D01*
X85891428Y-106275238D01*
X85939047Y-106465714D01*
X85939047Y-106799047D01*
X85891428Y-106989523D01*
X85796190Y-107084761D01*
X85700952Y-107132380D01*
X85510476Y-107132380D01*
X85415238Y-107084761D01*
X85320000Y-106989523D01*
X85272380Y-106799047D01*
X85272380Y-106465714D01*
X85320000Y-106275238D01*
X85415238Y-106180000D01*
X85510476Y-106132380D01*
X81327809Y-103084380D02*
X81946857Y-103084380D01*
X81613523Y-103465333D01*
X81756380Y-103465333D01*
X81851619Y-103512952D01*
X81899238Y-103560571D01*
X81946857Y-103655809D01*
X81946857Y-103893904D01*
X81899238Y-103989142D01*
X81851619Y-104036761D01*
X81756380Y-104084380D01*
X81470666Y-104084380D01*
X81375428Y-104036761D01*
X81327809Y-103989142D01*
X82375428Y-103989142D02*
X82423047Y-104036761D01*
X82375428Y-104084380D01*
X82327809Y-104036761D01*
X82375428Y-103989142D01*
X82375428Y-104084380D01*
X82756380Y-103084380D02*
X83375428Y-103084380D01*
X83042095Y-103465333D01*
X83184952Y-103465333D01*
X83280190Y-103512952D01*
X83327809Y-103560571D01*
X83375428Y-103655809D01*
X83375428Y-103893904D01*
X83327809Y-103989142D01*
X83280190Y-104036761D01*
X83184952Y-104084380D01*
X82899238Y-104084380D01*
X82804000Y-104036761D01*
X82756380Y-103989142D01*
X83661142Y-103084380D02*
X83994476Y-104084380D01*
X84327809Y-103084380D01*
D11*
G36*
X88509885Y-112215929D02*
G01*
X88548105Y-112221179D01*
X88704471Y-112253566D01*
X88851491Y-112302828D01*
X89004327Y-112374588D01*
X89090500Y-112422295D01*
X89153559Y-112458711D01*
X89246051Y-112512186D01*
X89360781Y-112578558D01*
X89490553Y-112653663D01*
X89628171Y-112733337D01*
X89725500Y-112789703D01*
X89870286Y-112873399D01*
X90017807Y-112958383D01*
X90159496Y-113039739D01*
X90286783Y-113112553D01*
X90391101Y-113171909D01*
X90438440Y-113198647D01*
X90634481Y-113320729D01*
X90793618Y-113447743D01*
X90921265Y-113585719D01*
X91022838Y-113740691D01*
X91103751Y-113918692D01*
X91116805Y-113954394D01*
X91175417Y-114120084D01*
X91175417Y-115220750D01*
X91175392Y-115476481D01*
X91175049Y-115693865D01*
X91173987Y-115876887D01*
X91171803Y-116029532D01*
X91168097Y-116155788D01*
X91162467Y-116259638D01*
X91154511Y-116345070D01*
X91143827Y-116416068D01*
X91130013Y-116476619D01*
X91112668Y-116530708D01*
X91091391Y-116582321D01*
X91065780Y-116635443D01*
X91035432Y-116694061D01*
X91024922Y-116714120D01*
X90963968Y-116817021D01*
X90891108Y-116912276D01*
X90801689Y-117003761D01*
X90691065Y-117095354D01*
X90554583Y-117190931D01*
X90387596Y-117294371D01*
X90201750Y-117400520D01*
X90084531Y-117466261D01*
X89943502Y-117546414D01*
X89791242Y-117633768D01*
X89640333Y-117721108D01*
X89524417Y-117788836D01*
X89355244Y-117887867D01*
X89217262Y-117967667D01*
X89105424Y-118030896D01*
X89014685Y-118080215D01*
X88940002Y-118118283D01*
X88876330Y-118147761D01*
X88818623Y-118171309D01*
X88761837Y-118191586D01*
X88758465Y-118192718D01*
X88618917Y-118226979D01*
X88461482Y-118245614D01*
X88303960Y-118247585D01*
X88164151Y-118231852D01*
X88147776Y-118228355D01*
X88047868Y-118200676D01*
X87940703Y-118160624D01*
X87820009Y-118105255D01*
X87679510Y-118031623D01*
X87512932Y-117936782D01*
X87459212Y-117905105D01*
X87340500Y-117835234D01*
X87198770Y-117752710D01*
X87047927Y-117665577D01*
X86901880Y-117581882D01*
X86825667Y-117538548D01*
X86646834Y-117437040D01*
X86500727Y-117353560D01*
X86383097Y-117285522D01*
X86289698Y-117230335D01*
X86216281Y-117185413D01*
X86158599Y-117148166D01*
X86112405Y-117116007D01*
X86073449Y-117086345D01*
X86044375Y-117062450D01*
X85891561Y-116909950D01*
X85768291Y-116733397D01*
X85732633Y-116667981D01*
X85706278Y-116615255D01*
X85683943Y-116565464D01*
X85665295Y-116514707D01*
X85650003Y-116459081D01*
X85637734Y-116394686D01*
X85628157Y-116317618D01*
X85620940Y-116223977D01*
X85615750Y-116109859D01*
X85615481Y-116099167D01*
X86741000Y-116099167D01*
X87206667Y-116099167D01*
X87206667Y-115485334D01*
X87259846Y-115485334D01*
X87283585Y-115489085D01*
X87308090Y-115503244D01*
X87336547Y-115532167D01*
X87372139Y-115580210D01*
X87418051Y-115651729D01*
X87477470Y-115751082D01*
X87553579Y-115882625D01*
X87565472Y-115903375D01*
X87677595Y-116099167D01*
X87939547Y-116099167D01*
X88039242Y-116098234D01*
X88121476Y-116095687D01*
X88178193Y-116091907D01*
X88194598Y-116088621D01*
X88303879Y-116088621D01*
X88304002Y-116088780D01*
X88328041Y-116092854D01*
X88385659Y-116096178D01*
X88468103Y-116098399D01*
X88562110Y-116099167D01*
X88809831Y-116099167D01*
X88835773Y-115998625D01*
X88856162Y-115925036D01*
X88876779Y-115858792D01*
X88883425Y-115839875D01*
X88905136Y-115781667D01*
X89448415Y-115781667D01*
X89462147Y-115854863D01*
X89478972Y-115926521D01*
X89501447Y-116002445D01*
X89503436Y-116008321D01*
X89530994Y-116088584D01*
X89789519Y-116094547D01*
X89901403Y-116096218D01*
X89976465Y-116094827D01*
X90020137Y-116089913D01*
X90037852Y-116081012D01*
X90038215Y-116073380D01*
X90029672Y-116047984D01*
X90009362Y-115986740D01*
X89978726Y-115894021D01*
X89939206Y-115774198D01*
X89892243Y-115631645D01*
X89839281Y-115470732D01*
X89781759Y-115295833D01*
X89755235Y-115215142D01*
X89482083Y-114384035D01*
X89164583Y-114389642D01*
X88847083Y-114395250D01*
X88798250Y-114543417D01*
X88699552Y-114843156D01*
X88613595Y-115104817D01*
X88539717Y-115330473D01*
X88477255Y-115522201D01*
X88425543Y-115682075D01*
X88383919Y-115812172D01*
X88351719Y-115914566D01*
X88328278Y-115991332D01*
X88312934Y-116044547D01*
X88305022Y-116076285D01*
X88303879Y-116088621D01*
X88194598Y-116088621D01*
X88201338Y-116087271D01*
X88201500Y-116086837D01*
X88190253Y-116066266D01*
X88158896Y-116016137D01*
X88111004Y-115941979D01*
X88050155Y-115849319D01*
X87979923Y-115743687D01*
X87968667Y-115726866D01*
X87897372Y-115619979D01*
X87834901Y-115525485D01*
X87784823Y-115448852D01*
X87750706Y-115395545D01*
X87736117Y-115371031D01*
X87735833Y-115370159D01*
X87749708Y-115351967D01*
X87786429Y-115312044D01*
X87838646Y-115258326D01*
X87849994Y-115246933D01*
X87913194Y-115179589D01*
X87952348Y-115123961D01*
X87976315Y-115065132D01*
X87989078Y-115012719D01*
X88003220Y-114861489D01*
X87979048Y-114728123D01*
X87916486Y-114612311D01*
X87875240Y-114565293D01*
X87820370Y-114514789D01*
X87764767Y-114475503D01*
X87702039Y-114445869D01*
X87625793Y-114424323D01*
X87529637Y-114409301D01*
X87407179Y-114399237D01*
X87252027Y-114392568D01*
X87159042Y-114389988D01*
X86741000Y-114379724D01*
X86741000Y-116099167D01*
X85615481Y-116099167D01*
X85612256Y-115971364D01*
X85610125Y-115804589D01*
X85609026Y-115605633D01*
X85608626Y-115370592D01*
X85608583Y-115210167D01*
X85608616Y-114970009D01*
X85608823Y-114768228D01*
X85609362Y-114600869D01*
X85610393Y-114463976D01*
X85612077Y-114353594D01*
X85614574Y-114265765D01*
X85618042Y-114196536D01*
X85622643Y-114141950D01*
X85628535Y-114098051D01*
X85635879Y-114060883D01*
X85644834Y-114026491D01*
X85655561Y-113990919D01*
X85658187Y-113982500D01*
X85732604Y-113793063D01*
X85832287Y-113625899D01*
X85961391Y-113476266D01*
X86124068Y-113339418D01*
X86324473Y-113210613D01*
X86343418Y-113199862D01*
X86430811Y-113150384D01*
X86546194Y-113084569D01*
X86680958Y-113007354D01*
X86826494Y-112923676D01*
X86974194Y-112838475D01*
X87058500Y-112789703D01*
X87197329Y-112709307D01*
X87333357Y-112630562D01*
X87459390Y-112557630D01*
X87568231Y-112494674D01*
X87652685Y-112445858D01*
X87693500Y-112422295D01*
X87910095Y-112313268D01*
X88115870Y-112243116D01*
X88314556Y-112210963D01*
X88509885Y-112215929D01*
X88509885Y-112215929D01*
G37*
X88509885Y-112215929D02*
X88548105Y-112221179D01*
X88704471Y-112253566D01*
X88851491Y-112302828D01*
X89004327Y-112374588D01*
X89090500Y-112422295D01*
X89153559Y-112458711D01*
X89246051Y-112512186D01*
X89360781Y-112578558D01*
X89490553Y-112653663D01*
X89628171Y-112733337D01*
X89725500Y-112789703D01*
X89870286Y-112873399D01*
X90017807Y-112958383D01*
X90159496Y-113039739D01*
X90286783Y-113112553D01*
X90391101Y-113171909D01*
X90438440Y-113198647D01*
X90634481Y-113320729D01*
X90793618Y-113447743D01*
X90921265Y-113585719D01*
X91022838Y-113740691D01*
X91103751Y-113918692D01*
X91116805Y-113954394D01*
X91175417Y-114120084D01*
X91175417Y-115220750D01*
X91175392Y-115476481D01*
X91175049Y-115693865D01*
X91173987Y-115876887D01*
X91171803Y-116029532D01*
X91168097Y-116155788D01*
X91162467Y-116259638D01*
X91154511Y-116345070D01*
X91143827Y-116416068D01*
X91130013Y-116476619D01*
X91112668Y-116530708D01*
X91091391Y-116582321D01*
X91065780Y-116635443D01*
X91035432Y-116694061D01*
X91024922Y-116714120D01*
X90963968Y-116817021D01*
X90891108Y-116912276D01*
X90801689Y-117003761D01*
X90691065Y-117095354D01*
X90554583Y-117190931D01*
X90387596Y-117294371D01*
X90201750Y-117400520D01*
X90084531Y-117466261D01*
X89943502Y-117546414D01*
X89791242Y-117633768D01*
X89640333Y-117721108D01*
X89524417Y-117788836D01*
X89355244Y-117887867D01*
X89217262Y-117967667D01*
X89105424Y-118030896D01*
X89014685Y-118080215D01*
X88940002Y-118118283D01*
X88876330Y-118147761D01*
X88818623Y-118171309D01*
X88761837Y-118191586D01*
X88758465Y-118192718D01*
X88618917Y-118226979D01*
X88461482Y-118245614D01*
X88303960Y-118247585D01*
X88164151Y-118231852D01*
X88147776Y-118228355D01*
X88047868Y-118200676D01*
X87940703Y-118160624D01*
X87820009Y-118105255D01*
X87679510Y-118031623D01*
X87512932Y-117936782D01*
X87459212Y-117905105D01*
X87340500Y-117835234D01*
X87198770Y-117752710D01*
X87047927Y-117665577D01*
X86901880Y-117581882D01*
X86825667Y-117538548D01*
X86646834Y-117437040D01*
X86500727Y-117353560D01*
X86383097Y-117285522D01*
X86289698Y-117230335D01*
X86216281Y-117185413D01*
X86158599Y-117148166D01*
X86112405Y-117116007D01*
X86073449Y-117086345D01*
X86044375Y-117062450D01*
X85891561Y-116909950D01*
X85768291Y-116733397D01*
X85732633Y-116667981D01*
X85706278Y-116615255D01*
X85683943Y-116565464D01*
X85665295Y-116514707D01*
X85650003Y-116459081D01*
X85637734Y-116394686D01*
X85628157Y-116317618D01*
X85620940Y-116223977D01*
X85615750Y-116109859D01*
X85615481Y-116099167D01*
X86741000Y-116099167D01*
X87206667Y-116099167D01*
X87206667Y-115485334D01*
X87259846Y-115485334D01*
X87283585Y-115489085D01*
X87308090Y-115503244D01*
X87336547Y-115532167D01*
X87372139Y-115580210D01*
X87418051Y-115651729D01*
X87477470Y-115751082D01*
X87553579Y-115882625D01*
X87565472Y-115903375D01*
X87677595Y-116099167D01*
X87939547Y-116099167D01*
X88039242Y-116098234D01*
X88121476Y-116095687D01*
X88178193Y-116091907D01*
X88194598Y-116088621D01*
X88303879Y-116088621D01*
X88304002Y-116088780D01*
X88328041Y-116092854D01*
X88385659Y-116096178D01*
X88468103Y-116098399D01*
X88562110Y-116099167D01*
X88809831Y-116099167D01*
X88835773Y-115998625D01*
X88856162Y-115925036D01*
X88876779Y-115858792D01*
X88883425Y-115839875D01*
X88905136Y-115781667D01*
X89448415Y-115781667D01*
X89462147Y-115854863D01*
X89478972Y-115926521D01*
X89501447Y-116002445D01*
X89503436Y-116008321D01*
X89530994Y-116088584D01*
X89789519Y-116094547D01*
X89901403Y-116096218D01*
X89976465Y-116094827D01*
X90020137Y-116089913D01*
X90037852Y-116081012D01*
X90038215Y-116073380D01*
X90029672Y-116047984D01*
X90009362Y-115986740D01*
X89978726Y-115894021D01*
X89939206Y-115774198D01*
X89892243Y-115631645D01*
X89839281Y-115470732D01*
X89781759Y-115295833D01*
X89755235Y-115215142D01*
X89482083Y-114384035D01*
X89164583Y-114389642D01*
X88847083Y-114395250D01*
X88798250Y-114543417D01*
X88699552Y-114843156D01*
X88613595Y-115104817D01*
X88539717Y-115330473D01*
X88477255Y-115522201D01*
X88425543Y-115682075D01*
X88383919Y-115812172D01*
X88351719Y-115914566D01*
X88328278Y-115991332D01*
X88312934Y-116044547D01*
X88305022Y-116076285D01*
X88303879Y-116088621D01*
X88194598Y-116088621D01*
X88201338Y-116087271D01*
X88201500Y-116086837D01*
X88190253Y-116066266D01*
X88158896Y-116016137D01*
X88111004Y-115941979D01*
X88050155Y-115849319D01*
X87979923Y-115743687D01*
X87968667Y-115726866D01*
X87897372Y-115619979D01*
X87834901Y-115525485D01*
X87784823Y-115448852D01*
X87750706Y-115395545D01*
X87736117Y-115371031D01*
X87735833Y-115370159D01*
X87749708Y-115351967D01*
X87786429Y-115312044D01*
X87838646Y-115258326D01*
X87849994Y-115246933D01*
X87913194Y-115179589D01*
X87952348Y-115123961D01*
X87976315Y-115065132D01*
X87989078Y-115012719D01*
X88003220Y-114861489D01*
X87979048Y-114728123D01*
X87916486Y-114612311D01*
X87875240Y-114565293D01*
X87820370Y-114514789D01*
X87764767Y-114475503D01*
X87702039Y-114445869D01*
X87625793Y-114424323D01*
X87529637Y-114409301D01*
X87407179Y-114399237D01*
X87252027Y-114392568D01*
X87159042Y-114389988D01*
X86741000Y-114379724D01*
X86741000Y-116099167D01*
X85615481Y-116099167D01*
X85612256Y-115971364D01*
X85610125Y-115804589D01*
X85609026Y-115605633D01*
X85608626Y-115370592D01*
X85608583Y-115210167D01*
X85608616Y-114970009D01*
X85608823Y-114768228D01*
X85609362Y-114600869D01*
X85610393Y-114463976D01*
X85612077Y-114353594D01*
X85614574Y-114265765D01*
X85618042Y-114196536D01*
X85622643Y-114141950D01*
X85628535Y-114098051D01*
X85635879Y-114060883D01*
X85644834Y-114026491D01*
X85655561Y-113990919D01*
X85658187Y-113982500D01*
X85732604Y-113793063D01*
X85832287Y-113625899D01*
X85961391Y-113476266D01*
X86124068Y-113339418D01*
X86324473Y-113210613D01*
X86343418Y-113199862D01*
X86430811Y-113150384D01*
X86546194Y-113084569D01*
X86680958Y-113007354D01*
X86826494Y-112923676D01*
X86974194Y-112838475D01*
X87058500Y-112789703D01*
X87197329Y-112709307D01*
X87333357Y-112630562D01*
X87459390Y-112557630D01*
X87568231Y-112494674D01*
X87652685Y-112445858D01*
X87693500Y-112422295D01*
X87910095Y-112313268D01*
X88115870Y-112243116D01*
X88314556Y-112210963D01*
X88509885Y-112215929D01*
G36*
X87336033Y-114752924D02*
G01*
X87405209Y-114770155D01*
X87462707Y-114794437D01*
X87483359Y-114809526D01*
X87515103Y-114867448D01*
X87523052Y-114942256D01*
X87505472Y-115014705D01*
X87502372Y-115020839D01*
X87455256Y-115070593D01*
X87381563Y-115107776D01*
X87296726Y-115125065D01*
X87281801Y-115125500D01*
X87206667Y-115125500D01*
X87206667Y-114946833D01*
X87209262Y-114857635D01*
X87216353Y-114791251D01*
X87226900Y-114756525D01*
X87229336Y-114754155D01*
X87271851Y-114746380D01*
X87336033Y-114752924D01*
X87336033Y-114752924D01*
G37*
X87336033Y-114752924D02*
X87405209Y-114770155D01*
X87462707Y-114794437D01*
X87483359Y-114809526D01*
X87515103Y-114867448D01*
X87523052Y-114942256D01*
X87505472Y-115014705D01*
X87502372Y-115020839D01*
X87455256Y-115070593D01*
X87381563Y-115107776D01*
X87296726Y-115125065D01*
X87281801Y-115125500D01*
X87206667Y-115125500D01*
X87206667Y-114946833D01*
X87209262Y-114857635D01*
X87216353Y-114791251D01*
X87226900Y-114756525D01*
X87229336Y-114754155D01*
X87271851Y-114746380D01*
X87336033Y-114752924D01*
G36*
X89181403Y-114779451D02*
G01*
X89198471Y-114835956D01*
X89220196Y-114915390D01*
X89244433Y-115009048D01*
X89269035Y-115108226D01*
X89291859Y-115204216D01*
X89310759Y-115288315D01*
X89323589Y-115351816D01*
X89328205Y-115386014D01*
X89327568Y-115389376D01*
X89300071Y-115396607D01*
X89244942Y-115400188D01*
X89175758Y-115400417D01*
X89106098Y-115397592D01*
X89049539Y-115392012D01*
X89019659Y-115383974D01*
X89018322Y-115382584D01*
X89019129Y-115357670D01*
X89028611Y-115302131D01*
X89044729Y-115224337D01*
X89065447Y-115132658D01*
X89088729Y-115035466D01*
X89112536Y-114941131D01*
X89134833Y-114858024D01*
X89153583Y-114794516D01*
X89166747Y-114758978D01*
X89171138Y-114754582D01*
X89181403Y-114779451D01*
X89181403Y-114779451D01*
G37*
X89181403Y-114779451D02*
X89198471Y-114835956D01*
X89220196Y-114915390D01*
X89244433Y-115009048D01*
X89269035Y-115108226D01*
X89291859Y-115204216D01*
X89310759Y-115288315D01*
X89323589Y-115351816D01*
X89328205Y-115386014D01*
X89327568Y-115389376D01*
X89300071Y-115396607D01*
X89244942Y-115400188D01*
X89175758Y-115400417D01*
X89106098Y-115397592D01*
X89049539Y-115392012D01*
X89019659Y-115383974D01*
X89018322Y-115382584D01*
X89019129Y-115357670D01*
X89028611Y-115302131D01*
X89044729Y-115224337D01*
X89065447Y-115132658D01*
X89088729Y-115035466D01*
X89112536Y-114941131D01*
X89134833Y-114858024D01*
X89153583Y-114794516D01*
X89166747Y-114758978D01*
X89171138Y-114754582D01*
X89181403Y-114779451D01*
D12*
X120666000Y-115165000D02*
X87106000Y-115165000D01*
X87106000Y-115165000D02*
X87106000Y-105815000D01*
X87106000Y-105815000D02*
X120666000Y-105815000D01*
X120666000Y-105815000D02*
X120666000Y-115165000D01*
X120916000Y-105565000D02*
X118376000Y-105565000D01*
X120916000Y-105565000D02*
X120916000Y-108105000D01*
X78121200Y-105201800D02*
X80781200Y-105201800D01*
X78121200Y-105201800D02*
X78121200Y-117961800D01*
X78121200Y-117961800D02*
X80781200Y-117961800D01*
X80781200Y-105201800D02*
X80781200Y-117961800D01*
X80781200Y-102601800D02*
X80781200Y-103931800D01*
X79451200Y-102601800D02*
X80781200Y-102601800D01*
X126178000Y-106426000D02*
X128838000Y-106426000D01*
X126178000Y-106426000D02*
X126178000Y-116646000D01*
X126178000Y-116646000D02*
X128838000Y-116646000D01*
X128838000Y-106426000D02*
X128838000Y-116646000D01*
X128838000Y-103826000D02*
X128838000Y-105156000D01*
X127508000Y-103826000D02*
X128838000Y-103826000D01*
D10*
X111121866Y-115892580D02*
X111121866Y-116606866D01*
X111074247Y-116749723D01*
X110979009Y-116844961D01*
X110836152Y-116892580D01*
X110740914Y-116892580D01*
X112121866Y-116892580D02*
X111550438Y-116892580D01*
X111836152Y-116892580D02*
X111836152Y-115892580D01*
X111740914Y-116035438D01*
X111645676Y-116130676D01*
X111550438Y-116178295D01*
X79117866Y-100614180D02*
X79117866Y-101328466D01*
X79070247Y-101471323D01*
X78975009Y-101566561D01*
X78832152Y-101614180D01*
X78736914Y-101614180D01*
X79546438Y-100709419D02*
X79594057Y-100661800D01*
X79689295Y-100614180D01*
X79927390Y-100614180D01*
X80022628Y-100661800D01*
X80070247Y-100709419D01*
X80117866Y-100804657D01*
X80117866Y-100899895D01*
X80070247Y-101042752D01*
X79498819Y-101614180D01*
X80117866Y-101614180D01*
X127174666Y-101838380D02*
X127174666Y-102552666D01*
X127127047Y-102695523D01*
X127031809Y-102790761D01*
X126888952Y-102838380D01*
X126793714Y-102838380D01*
X127555619Y-101838380D02*
X128174666Y-101838380D01*
X127841333Y-102219333D01*
X127984190Y-102219333D01*
X128079428Y-102266952D01*
X128127047Y-102314571D01*
X128174666Y-102409809D01*
X128174666Y-102647904D01*
X128127047Y-102743142D01*
X128079428Y-102790761D01*
X127984190Y-102838380D01*
X127698476Y-102838380D01*
X127603238Y-102790761D01*
X127555619Y-102743142D01*
M02*
