M48
; DRILL file {KiCad 5.1.1-8be2ce7~80~ubuntu18.10.1} date Isnin 27 Mei 2019 02:03:15  +08
; FORMAT={-:-/ absolute / metric / decimal}
; #@! TF.CreationDate,2019-05-27T02:03:15+08:00
; #@! TF.GenerationSoftware,Kicad,Pcbnew,5.1.1-8be2ce7~80~ubuntu18.10.1
; #@! TF.FileFunction,Plated,1,2,PTH
FMAT,2
METRIC
T1C1.000
T2C1.016
%
G90
G05
T1
X127.508Y-105.156
X127.508Y-107.696
X127.508Y-110.236
X127.508Y-112.776
X127.508Y-115.316
X79.451Y-103.932
X79.451Y-106.472
X79.451Y-109.012
X79.451Y-111.552
X79.451Y-114.092
X79.451Y-116.632
T2
X92.456Y-109.22
X92.456Y-111.76
X94.996Y-109.22
X94.996Y-111.76
X97.536Y-109.22
X97.536Y-111.76
X100.076Y-109.22
X100.076Y-111.76
X102.616Y-109.22
X102.616Y-111.76
X105.156Y-109.22
X105.156Y-111.76
X107.696Y-109.22
X107.696Y-111.76
X110.236Y-109.22
X110.236Y-111.76
X112.776Y-109.22
X112.776Y-111.76
X115.316Y-109.22
X115.316Y-111.76
T0
M30
